<svg width="19" height="19" viewBox="0 0 19 19" fill="none" xmlns="http://www.w3.org/2000/svg">
<path d="M11.8187 2.58533L9.23333 0L6.648 2.58533L9.23333 5.17067L11.8187 2.58533Z" fill="#5932EA"/>
<path d="M5.17067 9.23333L2.58533 6.648L0 9.23333L2.58533 11.8187L5.17067 9.23333Z" fill="#5932EA"/>
<path d="M11.8187 9.23333L15.1427 12.5573L12.5573 15.1427L9.23333 11.8187L5.90933 15.1427L3.324 12.5573L6.648 9.23333L3.324 5.90933L5.90933 3.324L9.23333 6.648L12.5573 3.324L15.1427 5.90933L11.8187 9.23333Z" fill="#5932EA"/>
<path d="M15.8813 6.648L18.4667 9.23333L15.8813 11.8187L13.296 9.23333L15.8813 6.648Z" fill="#5932EA"/>
<path d="M11.8187 15.8813L9.23333 13.296L6.648 15.8813L9.23333 18.4667L11.8187 15.8813Z" fill="#5932EA"/>
</svg>
