<svg width="41" height="40" viewBox="0 0 41 40" fill="none" xmlns="http://www.w3.org/2000/svg">
<path fill-rule="evenodd" clip-rule="evenodd" d="M8.56143 3.59787C7.12931 4.59823 5.8343 5.78098 4.71011 7.1124C9.30409 6.68633 15.1405 7.38205 21.9166 10.7667C29.1526 14.3809 34.9793 14.5031 39.0344 13.7217C38.6665 12.6088 38.2032 11.5392 37.6546 10.5224C33.0126 11.0115 27.0615 10.364 20.126 6.89998C15.722 4.70018 11.8398 3.794 8.56143 3.59787ZM34.9429 6.66665C31.277 2.575 25.9497 0 20.0203 0C18.279 0 16.5895 0.222107 14.9789 0.639481C17.1603 1.23409 19.4776 2.10398 21.9166 3.32227C26.9944 5.85853 31.3783 6.67516 34.9429 6.66665ZM39.9014 17.6281C35.0025 18.5945 28.2375 18.3959 20.126 14.3444C12.5427 10.5566 6.50705 10.6043 2.43638 11.508C2.22626 11.5546 2.0211 11.6036 1.82089 11.6546C1.28793 12.8125 0.86251 14.0301 0.557273 15.2945C0.883287 15.2075 1.22017 15.1248 1.56775 15.0476C6.50619 13.9513 13.4838 13.9989 21.9166 18.2111C29.5 21.9989 35.5357 21.9512 39.6064 21.0475C39.7459 21.0166 39.8832 20.9846 40.0185 20.9516C40.0333 20.6363 40.0406 20.319 40.0406 20C40.0406 19.1975 39.9934 18.406 39.9014 17.6281ZM39.3648 25.1723C34.5134 26.0196 27.9453 25.6944 20.126 21.7888C12.5427 18.001 6.50705 18.0487 2.43638 18.9524C1.53281 19.1529 0.719972 19.3972 0.00293345 19.6551C0.000978841 19.7698 0 19.8848 0 20C0 31.0457 8.96341 40 20.0203 40C29.2868 40 37.083 33.7109 39.3648 25.1723Z" fill="white"/>
</svg>
