<svg width="24" height="24" viewBox="0 0 24 24" fill="none" xmlns="http://www.w3.org/2000/svg">
<path d="M14.1219 2.42177L13.4589 1.50696C13.3666 1.37958 13.3205 1.3159 13.2501 1.28302C13.1798 1.25015 13.1052 1.25533 12.956 1.2657C11.2563 1.38379 9.70751 2.05024 8.48518 3.08944C8.42063 3.14432 8.46021 3.24421 8.54479 3.24919C9.52542 3.30692 10.0473 3.85174 10.6189 4.45604C11.5024 5.39011 12.1971 5.31288 12.5228 5.14072C12.6559 5.07037 12.6804 5.02059 12.6888 5.00343L12.6894 5.00219C12.716 4.9485 12.7271 4.89111 12.7667 4.67381C12.7998 4.49221 12.8573 4.18046 13.0565 3.87946C13.2672 3.56115 13.5817 3.32909 13.9964 3.16467C14.1693 3.09613 14.2225 3.00017 14.2417 2.90969C14.2656 2.79694 14.2463 2.61752 14.1219 2.42177Z" fill="white"/>
<path d="M15.0706 16.3568C15.1855 16.453 15.2429 16.5012 15.3155 16.5168C15.3881 16.5324 15.4566 16.5132 15.5937 16.4749C18.0623 15.7834 20.033 13.8996 20.8464 11.4833C20.9531 11.1662 21.0065 11.0077 20.9167 10.8827C20.8269 10.7578 20.6504 10.7578 20.2974 10.7578H20C19.5002 10.7578 19.2266 10.9422 18.8253 11.2185L18.811 11.2283C18.396 11.514 17.79 11.9313 16.8529 11.7438C15.618 11.4967 15.0275 11.5624 14.7729 11.6801C14.678 11.724 14.6399 11.7703 14.613 11.8245C14.5773 11.8965 14.5416 12.028 14.5416 12.2597L14.5417 12.3469C14.5419 12.8581 14.5421 13.2444 14.4544 13.5967C14.3631 13.9633 14.1816 14.275 13.9582 14.6588L13.92 14.7243C13.775 14.9739 13.7473 15.1121 13.7502 15.1764C13.7512 15.1981 13.7555 15.2166 13.7705 15.2424C13.7879 15.2721 13.8313 15.3302 13.9359 15.4078C13.9479 15.4166 13.9596 15.4258 13.9709 15.4354L15.0706 16.3568Z" fill="white"/>
<path opacity="0.4" d="M15.5408 1.91473C15.4432 1.70221 15.3944 1.59595 15.4372 1.5472C15.4799 1.49846 15.5824 1.53008 15.7874 1.59334C18.951 2.56974 21.25 5.51843 21.25 9.00437C21.25 9.1438 21.1353 9.25451 20.9959 9.25451H20C19.0266 9.25451 18.4232 9.67059 18.0089 9.95627L17.9751 9.97953C17.5739 10.2557 17.433 10.3269 17.1471 10.2696C15.882 10.0165 14.8684 9.98019 14.1437 10.3153C13.7491 10.4977 13.4538 10.7837 13.2697 11.1541C13.0945 11.5069 13.0416 11.8925 13.0416 12.2573C13.0416 12.895 13.0362 13.0815 12.9989 13.2313C12.9654 13.3659 12.9024 13.4872 12.6234 13.9674C12.4302 14.2997 12.2296 14.7435 12.2517 15.2405C12.2757 15.7833 12.555 16.2426 13.0235 16.5967C13.0846 16.6479 13.0459 16.746 12.9664 16.7406C8.93511 16.4663 5.75 13.1075 5.75 9.00437C5.75 7.62724 6.10879 6.33395 6.73795 5.21299C6.85919 4.99698 6.91981 4.88898 7.03683 4.82046C7.15385 4.75195 7.28854 4.75195 7.55792 4.75195H8.47603C8.79051 4.77416 8.95032 4.87935 9.52878 5.49091C10.7445 6.77617 12.149 7.03858 13.2228 6.47097C13.6112 6.26567 13.8722 5.99578 14.0327 5.67187C14.1602 5.41454 14.2071 5.1445 14.2335 4.99253L14.2417 4.94614C14.2733 4.77267 14.2918 4.73349 14.3065 4.71129C14.3113 4.70385 14.3517 4.6411 14.5482 4.56319C15.1782 4.31343 15.5824 3.81714 15.7082 3.2248C15.8042 2.7728 15.7278 2.32193 15.5408 1.91473Z" fill="white"/>
<path fill-rule="evenodd" clip-rule="evenodd" d="M7.21699 1.30292C7.60198 1.6989 7.59306 2.33201 7.19708 2.71699C5.53044 4.33735 4.5 6.59051 4.5 9.08251C4.5 13.9997 8.52161 18 13.5 18C15.9559 18 18.1791 17.0267 19.8029 15.448C20.1989 15.063 20.832 15.072 21.217 15.4679C21.602 15.8639 21.5931 16.497 21.1971 16.882C19.2134 18.8106 16.495 20 13.5 20V21H14.5C15.0523 21 15.5 21.4477 15.5 22C15.5 22.5523 15.0523 23 14.5 23H10.5C9.94772 23 9.5 22.5523 9.5 22C9.5 21.4477 9.94772 21 10.5 21H11.5V19.8199C6.38488 18.8869 2.5 14.4404 2.5 9.08251C2.5 6.02589 3.76683 3.26255 5.80292 1.28301C6.1989 0.898021 6.83201 0.906936 7.21699 1.30292Z" fill="white"/>
</svg>
