<svg width="24" height="24" viewBox="0 0 24 24" fill="none" xmlns="http://www.w3.org/2000/svg">
<g opacity="0.4">
<path d="M22.1566 9.83722C22.2444 9.92444 22.2452 10.0638 22.2469 10.3424C22.25 10.8458 22.25 11.3787 22.25 11.9428V12.0572C22.25 14.2479 22.25 15.9686 22.0694 17.312C21.8843 18.6886 21.4973 19.7809 20.6391 20.6391C19.7809 21.4973 18.6886 21.8843 17.312 22.0694C15.9686 22.25 14.2479 22.25 12.0572 22.25H11.9428C11.3787 22.25 10.8458 22.25 10.3424 22.2469C10.0638 22.2452 9.92444 22.2444 9.83722 22.1566C9.75 22.0689 9.75 21.9289 9.75 21.649V10.35C9.75 10.0672 9.75 9.92574 9.83787 9.83787C9.92574 9.75 10.0672 9.75 10.35 9.75H21.649C21.9289 9.75 22.0689 9.75 22.1566 9.83722Z" fill="white"/>
<path d="M7.65 9.75C7.93284 9.75 8.07426 9.75 8.16213 9.83787C8.25 9.92574 8.25 10.0672 8.25 10.35V21.5721C8.25 21.8691 8.25 22.0176 8.15427 22.1066C8.05853 22.1956 7.91313 22.1849 7.62234 22.1637C7.29229 22.1396 6.98118 22.1088 6.68802 22.0694C5.31137 21.8843 4.21911 21.4973 3.36091 20.6391C2.50272 19.7809 2.11568 18.6886 1.93059 17.312C1.74998 15.9686 1.74999 14.2479 1.75 12.0572V11.9428C1.75 11.3788 1.74999 10.8457 1.75307 10.3424C1.75478 10.0638 1.75563 9.92444 1.84339 9.83722C1.93114 9.75 2.07108 9.75 2.35096 9.75H7.65Z" fill="white"/>
</g>
<path fill-rule="evenodd" clip-rule="evenodd" d="M12.25 13C12.25 12.5858 12.5858 12.25 13 12.25H17C17.4142 12.25 17.75 12.5858 17.75 13C17.75 13.4142 17.4142 13.75 17 13.75H13C12.5858 13.75 12.25 13.4142 12.25 13Z" fill="white"/>
<path fill-rule="evenodd" clip-rule="evenodd" d="M12.25 17C12.25 16.5858 12.5858 16.25 13 16.25H15C15.4142 16.25 15.75 16.5858 15.75 17C15.75 17.4142 15.4142 17.75 15 17.75H13C12.5858 17.75 12.25 17.4142 12.25 17Z" fill="white"/>
<path fill-rule="evenodd" clip-rule="evenodd" d="M11.9415 1.75H12.0559C14.2466 1.74999 15.9673 1.74998 17.3107 1.93059C18.6873 2.11568 19.7796 2.50272 20.6378 3.36091C21.496 4.21911 21.883 5.31137 22.0681 6.68802C22.1075 6.98118 22.1383 7.29229 22.1624 7.62234C22.1836 7.91313 22.1943 8.05853 22.1053 8.15427C22.0163 8.25 21.8678 8.25 21.5708 8.25H2.42668C2.12969 8.25 1.9812 8.25 1.8922 8.15427C1.8032 8.05853 1.8138 7.91313 1.83502 7.62234C1.85911 7.29229 1.88993 6.98118 1.92934 6.68802C2.11443 5.31137 2.50146 4.21911 3.35965 3.36091C4.21785 2.50272 5.31012 2.11568 6.68677 1.93059C8.03019 1.74998 9.75086 1.74999 11.9415 1.75ZM5.99804 5C5.99804 4.44772 6.44376 4 6.99358 4H7.00251C7.55233 4 7.99804 4.44772 7.99804 5C7.99804 5.55229 7.55233 6 7.00251 6H6.99358C6.44376 6 5.99804 5.55229 5.99804 5ZM10.9935 4C10.4437 4 9.99804 4.44772 9.99804 5C9.99804 5.55229 10.4437 6 10.9935 6H11.0025C11.5523 6 11.998 5.55229 11.998 5C11.998 4.44772 11.5523 4 11.0025 4H10.9935Z" fill="white"/>
</svg>
