<svg width="28" height="28" viewBox="0 0 28 28" fill="none" xmlns="http://www.w3.org/2000/svg">
<circle cx="14" cy="14" r="14" fill="#5932EA"/>
<path d="M16.5882 7.35877L14.0029 4.77344L11.4175 7.35877L14.0029 9.94411L16.5882 7.35877Z" fill="white"/>
<path d="M9.9402 14.0068L7.35487 11.4214L4.76953 14.0068L7.35487 16.5921L9.9402 14.0068Z" fill="white"/>
<path d="M16.5882 14.0068L19.9122 17.3308L17.3269 19.9161L14.0029 16.5921L10.6789 19.9161L8.09353 17.3308L11.4175 14.0068L8.09353 10.6828L10.6789 8.09744L14.0029 11.4214L17.3269 8.09744L19.9122 10.6828L16.5882 14.0068Z" fill="white"/>
<path d="M20.6509 11.4214L23.2362 14.0068L20.6509 16.5921L18.0655 14.0068L20.6509 11.4214Z" fill="white"/>
<path d="M16.5882 20.6548L14.0029 18.0694L11.4175 20.6548L14.0029 23.2401L16.5882 20.6548Z" fill="white"/>
</svg>
