<svg width="33" height="33" viewBox="0 0 33 33" fill="none" xmlns="http://www.w3.org/2000/svg">
<path fill-rule="evenodd" clip-rule="evenodd" d="M5.89269 28.4328C5.63233 28.4421 5.37893 28.3476 5.18824 28.1701C4.99754 27.9926 4.88517 27.7466 4.87585 27.4863L4.45399 15.706C4.44466 15.4457 4.53915 15.1923 4.71666 15.0016C4.89416 14.8109 5.14016 14.6985 5.40052 14.6892C5.66087 14.6799 5.91427 14.7744 6.10497 14.9519C6.29566 15.1294 6.40803 15.3754 6.41736 15.6357L6.75435 25.0462L25.9613 4.41048C26.0493 4.31594 26.155 4.23966 26.2725 4.18599C26.39 4.13232 26.5169 4.10232 26.646 4.0977C26.7751 4.09308 26.9038 4.11392 27.0248 4.15905C27.1458 4.20418 27.2568 4.2727 27.3513 4.3607C27.4459 4.44871 27.5221 4.55447 27.5758 4.67196C27.6295 4.78944 27.6595 4.91635 27.6641 5.04542C27.6687 5.1745 27.6479 5.30323 27.6028 5.42425C27.5576 5.54528 27.4891 5.65623 27.4011 5.75077L8.19217 26.3846L17.6026 26.0476C17.863 26.0382 18.1164 26.1327 18.307 26.3102C18.4977 26.4877 18.6101 26.7337 18.6194 26.9941C18.6288 27.2544 18.5343 27.5078 18.3568 27.6985C18.1793 27.8892 17.9333 28.0016 17.6729 28.0109L5.89269 28.4328Z" fill="#202A25"/>
</svg>
