<svg width="332" height="332" viewBox="0 0 332 332" fill="none" xmlns="http://www.w3.org/2000/svg">
<g filter="url(#filter0_d_4128_10868)">
<rect x="113.602" y="88.0078" width="94.6182" height="94.6268" rx="47.3091" transform="rotate(-6 113.602 88.0078)" fill="url(#paint0_linear_4128_10868)"/>
<g filter="url(#filter1_f_4128_10868)">
<rect x="114.953" y="89.1016" width="92.1606" height="92.1689" rx="46.0803" transform="rotate(-6 114.953 89.1016)" fill="url(#paint1_linear_4128_10868)"/>
<rect x="115.278" y="89.3647" width="91.5692" height="91.5775" rx="45.7846" transform="rotate(-6 115.278 89.3647)" stroke="url(#paint2_linear_4128_10868)" stroke-width="0.591418"/>
</g>
<g filter="url(#filter2_f_4128_10868)">
<path d="M178.399 125.749C180.445 125.534 182.276 125.737 183.897 126.373C185.509 126.999 186.877 127.932 188.002 129.162C189.127 130.39 189.99 131.839 190.608 133.501C191.222 135.161 191.561 136.927 191.633 138.805L174.183 140.639C174.383 142.54 175.217 144.271 176.316 145.132C177.413 145.993 178.902 146.327 180.766 146.131C182.105 145.991 183.226 145.533 184.127 144.759C185.019 143.987 185.53 143.209 185.679 142.441L191.528 141.827C190.891 144.819 189.683 147.035 187.867 148.484C186.074 149.934 183.796 150.803 181.062 151.09C179.158 151.291 177.41 151.164 175.807 150.723C174.205 150.272 172.83 149.552 171.63 148.548C170.459 147.537 169.5 146.297 168.753 144.801C168.013 143.312 167.543 141.626 167.347 139.767C167.158 137.969 167.284 136.259 167.711 134.645C168.149 133.024 168.844 131.592 169.822 130.35C170.802 129.101 172.009 128.07 173.457 127.257C174.906 126.447 176.545 125.943 178.399 125.749ZM150.731 120.079C152.328 119.911 153.785 119.896 155.132 120.043C156.472 120.181 157.637 120.525 158.65 121.058C159.647 121.592 160.463 122.357 161.096 123.362C161.714 124.352 162.107 125.632 162.269 127.177C162.445 128.848 162.211 130.284 161.564 131.481C160.912 132.676 159.878 133.708 158.446 134.577C160.56 134.949 162.193 135.822 163.357 137.186C164.526 138.56 165.209 140.279 165.428 142.357C165.605 144.04 165.434 145.523 164.913 146.812C164.389 148.115 163.603 149.208 162.586 150.095C161.562 150.99 160.353 151.696 158.968 152.218C157.6 152.736 156.159 153.077 154.66 153.235L138.474 154.936L134.984 121.734L150.731 120.079ZM145.233 148.508L153.082 147.683C153.806 147.607 154.489 147.471 155.121 147.259C155.764 147.048 156.322 146.759 156.781 146.372C157.238 145.999 157.599 145.513 157.836 144.923C158.075 144.335 158.142 143.596 158.05 142.724C157.87 141.013 157.256 139.848 156.216 139.212C155.173 138.586 153.849 138.359 152.267 138.526L144.272 139.366L145.233 148.508ZM178.724 130.755C177.662 130.866 176.803 131.136 176.137 131.572C175.485 132.002 174.969 132.505 174.594 133.074C174.22 133.651 173.989 134.243 173.881 134.862C173.773 135.465 173.726 136.005 173.746 136.477L184.551 135.342C184.216 133.675 183.506 132.49 182.621 131.698C181.739 130.914 180.354 130.583 178.724 130.755ZM143.747 134.375L151.19 133.593C152.491 133.456 153.539 133.036 154.328 132.323C155.109 131.62 155.411 130.563 155.264 129.171C155.183 128.399 154.982 127.774 154.656 127.307C154.32 126.841 153.902 126.494 153.4 126.272C152.9 126.039 152.348 125.9 151.721 125.859C151.102 125.805 150.464 125.826 149.813 125.895L142.932 126.618L143.747 134.375ZM184.203 118.814L184.547 122.09L171.008 123.513L170.664 120.237L184.203 118.814Z" fill="#002773"/>
</g>
<mask id="path-5-inside-1_4128_10868" fill="white">
<path d="M182.266 119.102C184.312 118.887 186.144 119.089 187.764 119.725C189.376 120.351 190.744 121.285 191.87 122.515C192.994 123.743 193.857 125.193 194.475 126.855C195.089 128.514 195.429 130.279 195.501 132.157L178.05 133.992C178.25 135.893 179.084 137.625 180.183 138.486C181.28 139.347 182.77 139.681 184.633 139.485C185.972 139.344 187.093 138.886 187.994 138.112C188.886 137.341 189.398 136.562 189.546 135.795L195.395 135.18C194.759 138.173 193.551 140.388 191.735 141.837C189.942 143.288 187.663 144.157 184.929 144.444C183.025 144.644 181.278 144.517 179.676 144.076C178.073 143.626 176.697 142.905 175.498 141.901C174.326 140.89 173.368 139.649 172.62 138.153C171.881 136.664 171.41 134.979 171.215 133.12C171.026 131.323 171.152 129.612 171.579 127.997C172.017 126.377 172.711 124.945 173.689 123.704C174.669 122.455 175.876 121.423 177.324 120.609C178.773 119.8 180.413 119.297 182.266 119.102ZM154.598 113.433C156.195 113.265 157.652 113.25 158.999 113.396C160.339 113.535 161.504 113.878 162.517 114.411C163.514 114.946 164.33 115.711 164.964 116.715C165.581 117.705 165.974 118.986 166.136 120.53C166.312 122.201 166.078 123.638 165.431 124.835C164.78 126.029 163.745 127.062 162.313 127.93C164.427 128.302 166.06 129.175 167.224 130.54C168.393 131.914 169.077 133.633 169.295 135.71C169.472 137.394 169.301 138.877 168.78 140.165C168.256 141.468 167.47 142.562 166.454 143.449C165.429 144.343 164.22 145.05 162.835 145.571C161.467 146.089 160.026 146.431 158.527 146.589L142.341 148.29L138.852 115.088L154.598 113.433ZM149.1 141.862L156.949 141.037C157.673 140.961 158.356 140.825 158.988 140.612C159.631 140.401 160.19 140.112 160.648 139.726C161.105 139.352 161.467 138.867 161.703 138.276C161.942 137.688 162.009 136.95 161.917 136.077C161.737 134.367 161.123 133.202 160.083 132.566C159.04 131.939 157.716 131.713 156.134 131.879L148.139 132.72L149.1 141.862ZM182.591 124.108C181.529 124.22 180.67 124.49 180.004 124.925C179.353 125.355 178.836 125.858 178.461 126.427C178.087 127.003 177.856 127.597 177.748 128.215C177.64 128.818 177.593 129.359 177.613 129.831L188.418 128.695C188.083 127.028 187.373 125.843 186.488 125.051C185.606 124.267 184.221 123.937 182.591 124.108ZM147.614 127.728L155.057 126.946C156.359 126.809 157.406 126.39 158.195 125.677C158.976 124.973 159.278 123.917 159.132 122.524C159.05 121.753 158.849 121.128 158.523 120.661C158.187 120.195 157.769 119.848 157.268 119.625C156.768 119.392 156.215 119.254 155.588 119.213C154.969 119.159 154.331 119.18 153.68 119.248L146.799 119.971L147.614 127.728ZM188.07 112.167L188.414 115.442L174.875 116.865L174.531 113.59L188.07 112.167Z"/>
</mask>
<path d="M182.266 119.102C184.312 118.887 186.144 119.089 187.764 119.725C189.376 120.351 190.744 121.285 191.87 122.515C192.994 123.743 193.857 125.193 194.475 126.855C195.089 128.514 195.429 130.279 195.501 132.157L178.05 133.992C178.25 135.893 179.084 137.625 180.183 138.486C181.28 139.347 182.77 139.681 184.633 139.485C185.972 139.344 187.093 138.886 187.994 138.112C188.886 137.341 189.398 136.562 189.546 135.795L195.395 135.18C194.759 138.173 193.551 140.388 191.735 141.837C189.942 143.288 187.663 144.157 184.929 144.444C183.025 144.644 181.278 144.517 179.676 144.076C178.073 143.626 176.697 142.905 175.498 141.901C174.326 140.89 173.368 139.649 172.62 138.153C171.881 136.664 171.41 134.979 171.215 133.12C171.026 131.323 171.152 129.612 171.579 127.997C172.017 126.377 172.711 124.945 173.689 123.704C174.669 122.455 175.876 121.423 177.324 120.609C178.773 119.8 180.413 119.297 182.266 119.102ZM154.598 113.433C156.195 113.265 157.652 113.25 158.999 113.396C160.339 113.535 161.504 113.878 162.517 114.411C163.514 114.946 164.33 115.711 164.964 116.715C165.581 117.705 165.974 118.986 166.136 120.53C166.312 122.201 166.078 123.638 165.431 124.835C164.78 126.029 163.745 127.062 162.313 127.93C164.427 128.302 166.06 129.175 167.224 130.54C168.393 131.914 169.077 133.633 169.295 135.71C169.472 137.394 169.301 138.877 168.78 140.165C168.256 141.468 167.47 142.562 166.454 143.449C165.429 144.343 164.22 145.05 162.835 145.571C161.467 146.089 160.026 146.431 158.527 146.589L142.341 148.29L138.852 115.088L154.598 113.433ZM149.1 141.862L156.949 141.037C157.673 140.961 158.356 140.825 158.988 140.612C159.631 140.401 160.19 140.112 160.648 139.726C161.105 139.352 161.467 138.867 161.703 138.276C161.942 137.688 162.009 136.95 161.917 136.077C161.737 134.367 161.123 133.202 160.083 132.566C159.04 131.939 157.716 131.713 156.134 131.879L148.139 132.72L149.1 141.862ZM182.591 124.108C181.529 124.22 180.67 124.49 180.004 124.925C179.353 125.355 178.836 125.858 178.461 126.427C178.087 127.003 177.856 127.597 177.748 128.215C177.64 128.818 177.593 129.359 177.613 129.831L188.418 128.695C188.083 127.028 187.373 125.843 186.488 125.051C185.606 124.267 184.221 123.937 182.591 124.108ZM147.614 127.728L155.057 126.946C156.359 126.809 157.406 126.39 158.195 125.677C158.976 124.973 159.278 123.917 159.132 122.524C159.05 121.753 158.849 121.128 158.523 120.661C158.187 120.195 157.769 119.848 157.268 119.625C156.768 119.392 156.215 119.254 155.588 119.213C154.969 119.159 154.331 119.18 153.68 119.248L146.799 119.971L147.614 127.728ZM188.07 112.167L188.414 115.442L174.875 116.865L174.531 113.59L188.07 112.167Z" fill="white" fill-opacity="0.9"/>
<path d="M182.266 119.102L182.196 118.439L182.196 118.439L182.266 119.102ZM187.764 119.725L187.521 120.346L187.523 120.347L187.764 119.725ZM191.87 122.515L191.378 122.966L191.378 122.966L191.87 122.515ZM194.475 126.855L195.101 126.623L195.1 126.622L194.475 126.855ZM195.501 132.157L195.571 132.821L196.191 132.755L196.167 132.132L195.501 132.157ZM178.05 133.992L177.98 133.328L177.317 133.398L177.387 134.061L178.05 133.992ZM180.183 138.486L180.595 137.961L180.594 137.961L180.183 138.486ZM184.633 139.485L184.703 140.148L184.703 140.148L184.633 139.485ZM187.994 138.112L188.429 138.618L188.431 138.617L187.994 138.112ZM189.546 135.795L189.476 135.132L188.984 135.183L188.891 135.669L189.546 135.795ZM195.395 135.18L196.048 135.319L196.239 134.421L195.326 134.517L195.395 135.18ZM191.735 141.837L191.319 141.316L191.316 141.319L191.735 141.837ZM184.929 144.444L184.999 145.107L184.999 145.107L184.929 144.444ZM179.676 144.076L179.495 144.718L179.499 144.719L179.676 144.076ZM175.498 141.901L175.062 142.406L175.07 142.413L175.498 141.901ZM172.62 138.153L172.023 138.45L172.024 138.451L172.62 138.153ZM171.215 133.12L170.551 133.19L170.551 133.19L171.215 133.12ZM171.579 127.997L170.936 127.823L170.935 127.826L171.579 127.997ZM173.689 123.704L174.213 124.116L174.214 124.115L173.689 123.704ZM177.324 120.609L176.999 120.027L176.997 120.028L177.324 120.609ZM158.999 113.396L158.927 114.06L158.931 114.06L158.999 113.396ZM162.517 114.411L162.832 113.823L162.828 113.821L162.517 114.411ZM164.964 116.715L165.53 116.362L165.528 116.359L164.964 116.715ZM166.136 120.53L166.8 120.461L166.8 120.461L166.136 120.53ZM165.431 124.835L166.017 125.154L166.018 125.152L165.431 124.835ZM162.313 127.93L161.967 127.36L160.45 128.28L162.197 128.587L162.313 127.93ZM167.224 130.54L167.732 130.108L167.731 130.107L167.224 130.54ZM169.295 135.71L169.958 135.64L169.958 135.64L169.295 135.71ZM168.78 140.165L168.162 139.915L168.162 139.916L168.78 140.165ZM166.454 143.449L166.892 143.951L166.892 143.951L166.454 143.449ZM162.835 145.571L162.6 144.947L162.599 144.947L162.835 145.571ZM158.527 146.589L158.597 147.252L158.597 147.252L158.527 146.589ZM142.341 148.29L141.678 148.359L141.748 149.023L142.411 148.953L142.341 148.29ZM138.852 115.088L138.782 114.425L138.119 114.494L138.188 115.158L138.852 115.088ZM149.1 141.862L148.437 141.931L148.506 142.595L149.17 142.525L149.1 141.862ZM158.988 140.612L158.78 139.978L158.776 139.98L158.988 140.612ZM160.648 139.726L160.226 139.209L160.218 139.216L160.648 139.726ZM161.703 138.276L161.085 138.026L161.084 138.028L161.703 138.276ZM161.917 136.077L162.58 136.007L162.58 136.007L161.917 136.077ZM160.083 132.566L160.431 131.997L160.426 131.994L160.083 132.566ZM156.134 131.879L156.064 131.216L156.064 131.216L156.134 131.879ZM148.139 132.72L148.069 132.056L147.406 132.126L147.476 132.789L148.139 132.72ZM182.591 124.108L182.521 123.445L182.521 123.445L182.591 124.108ZM180.004 124.925L179.639 124.367L179.636 124.369L180.004 124.925ZM178.461 126.427L177.904 126.059L177.901 126.064L178.461 126.427ZM177.748 128.215L178.405 128.333L178.405 128.33L177.748 128.215ZM177.613 129.831L176.946 129.859L176.976 130.568L177.682 130.494L177.613 129.831ZM188.418 128.695L188.488 129.358L189.217 129.282L189.072 128.564L188.418 128.695ZM186.488 125.051L186.933 124.554L186.931 124.553L186.488 125.051ZM147.614 127.728L146.951 127.798L147.021 128.461L147.684 128.392L147.614 127.728ZM155.057 126.946L155.127 127.61L155.127 127.61L155.057 126.946ZM158.195 125.677L157.749 125.181L157.748 125.182L158.195 125.677ZM159.132 122.524L159.795 122.455L159.795 122.455L159.132 122.524ZM158.523 120.661L159.07 120.279L159.064 120.27L158.523 120.661ZM157.268 119.625L156.986 120.23L156.997 120.235L157.268 119.625ZM155.588 119.213L155.531 119.877L155.544 119.878L155.588 119.213ZM153.68 119.248L153.61 118.585L153.61 118.585L153.68 119.248ZM146.799 119.971L146.729 119.308L146.066 119.378L146.136 120.041L146.799 119.971ZM188.07 112.167L188.733 112.098L188.663 111.434L188 111.504L188.07 112.167ZM188.414 115.442L188.484 116.106L189.147 116.036L189.077 115.373L188.414 115.442ZM174.875 116.865L174.212 116.935L174.282 117.598L174.945 117.529L174.875 116.865ZM174.531 113.59L174.461 112.927L173.798 112.997L173.868 113.66L174.531 113.59ZM182.266 119.102L182.336 119.765C184.297 119.559 186.018 119.757 187.521 120.346L187.764 119.725L188.008 119.104C186.269 118.422 184.327 118.215 182.196 118.439L182.266 119.102ZM187.764 119.725L187.523 120.347C189.041 120.937 190.322 121.813 191.378 122.966L191.87 122.515L192.362 122.065C191.165 120.758 189.711 119.766 188.006 119.103L187.764 119.725ZM191.87 122.515L191.378 122.966C192.439 124.125 193.259 125.498 193.85 127.087L194.475 126.855L195.1 126.622C194.455 124.887 193.549 123.362 192.361 122.065L191.87 122.515ZM194.475 126.855L193.85 127.086C194.437 128.675 194.765 130.37 194.834 132.183L195.501 132.157L196.167 132.132C196.093 130.188 195.74 128.353 195.101 126.623L194.475 126.855ZM195.501 132.157L195.431 131.494L177.98 133.328L178.05 133.992L178.12 134.655L195.571 132.821L195.501 132.157ZM178.05 133.992L177.387 134.061C177.599 136.08 178.488 138.005 179.772 139.011L180.183 138.486L180.594 137.961C179.68 137.245 178.901 135.706 178.713 133.922L178.05 133.992ZM180.183 138.486L179.771 139.01C181.047 140.011 182.728 140.356 184.703 140.148L184.633 139.485L184.563 138.822C182.811 139.006 181.514 138.682 180.595 137.961L180.183 138.486ZM184.633 139.485L184.703 140.148C186.158 139.995 187.412 139.492 188.429 138.618L187.994 138.112L187.56 137.606C186.775 138.281 185.786 138.693 184.563 138.822L184.633 139.485ZM187.994 138.112L188.431 138.617C189.386 137.79 190.014 136.889 190.201 135.921L189.546 135.795L188.891 135.669C188.781 136.236 188.386 136.891 187.558 137.608L187.994 138.112ZM189.546 135.795L189.615 136.458L195.465 135.843L195.395 135.18L195.326 134.517L189.476 135.132L189.546 135.795ZM195.395 135.18L194.743 135.041C194.128 137.934 192.979 139.992 191.319 141.316L191.735 141.837L192.151 142.359C194.123 140.785 195.39 138.411 196.048 135.319L195.395 135.18ZM191.735 141.837L191.316 141.319C189.642 142.673 187.491 143.504 184.86 143.781L184.929 144.444L184.999 145.107C187.835 144.809 190.243 143.903 192.155 142.356L191.735 141.837ZM184.929 144.444L184.86 143.781C183.027 143.973 181.366 143.849 179.853 143.433L179.676 144.076L179.499 144.719C181.191 145.185 183.022 145.315 184.999 145.107L184.929 144.444ZM179.676 144.076L179.856 143.434C178.34 143.008 177.05 142.33 175.926 141.39L175.498 141.901L175.07 142.413C176.345 143.48 177.806 144.244 179.495 144.718L179.676 144.076ZM175.498 141.901L175.933 141.396C174.832 140.446 173.927 139.277 173.217 137.855L172.62 138.153L172.024 138.451C172.808 140.022 173.819 141.334 175.062 142.406L175.498 141.901ZM172.62 138.153L173.218 137.856C172.517 136.447 172.066 134.84 171.878 133.051L171.215 133.12L170.551 133.19C170.754 135.118 171.244 136.882 172.023 138.45L172.62 138.153ZM171.215 133.12L171.878 133.051C171.697 131.329 171.818 129.7 172.224 128.168L171.579 127.997L170.935 127.826C170.485 129.524 170.354 131.317 170.551 133.19L171.215 133.12ZM171.579 127.997L172.223 128.171C172.64 126.629 173.297 125.28 174.213 124.116L173.689 123.704L173.165 123.291C172.126 124.61 171.394 126.125 170.936 127.823L171.579 127.997ZM173.689 123.704L174.214 124.115C175.138 122.938 176.277 121.963 177.651 121.191L177.324 120.609L176.997 120.028C175.475 120.883 174.2 121.972 173.164 123.292L173.689 123.704ZM177.324 120.609L177.649 121.192C179.012 120.43 180.562 119.952 182.336 119.765L182.266 119.102L182.196 118.439C180.263 118.642 178.535 119.169 176.999 120.027L177.324 120.609ZM154.598 113.433L154.668 114.096C156.228 113.932 157.636 113.919 158.927 114.06L158.999 113.396L159.071 112.733C157.668 112.581 156.163 112.598 154.528 112.77L154.598 113.433ZM158.999 113.396L158.931 114.06C160.196 114.19 161.278 114.513 162.206 115.001L162.517 114.411L162.828 113.821C161.731 113.244 160.481 112.879 159.067 112.733L158.999 113.396ZM162.517 114.411L162.202 114.999C163.093 115.477 163.826 116.161 164.399 117.071L164.964 116.715L165.528 116.359C164.835 115.261 163.934 114.415 162.832 113.824L162.517 114.411ZM164.964 116.715L164.398 117.068C164.947 117.949 165.318 119.124 165.473 120.6L166.136 120.53L166.8 120.461C166.63 118.848 166.215 117.462 165.53 116.362L164.964 116.715ZM166.136 120.53L165.473 120.6C165.638 122.17 165.414 123.465 164.844 124.517L165.431 124.835L166.018 125.152C166.743 123.811 166.986 122.233 166.8 120.461L166.136 120.53ZM165.431 124.835L164.845 124.515C164.261 125.587 163.32 126.54 161.967 127.36L162.313 127.93L162.659 128.501C164.171 127.584 165.298 126.472 166.017 125.154L165.431 124.835ZM162.313 127.93L162.197 128.587C164.188 128.938 165.671 129.747 166.716 130.973L167.224 130.54L167.731 130.107C166.449 128.604 164.666 127.667 162.428 127.274L162.313 127.93ZM167.224 130.54L166.716 130.972C167.784 132.227 168.425 133.813 168.632 135.78L169.295 135.71L169.958 135.64C169.728 133.453 169.003 131.601 167.732 130.108L167.224 130.54ZM169.295 135.71L168.632 135.78C168.8 137.379 168.634 138.748 168.162 139.915L168.78 140.165L169.399 140.415C169.968 139.006 170.144 137.409 169.958 135.64L169.295 135.71ZM168.78 140.165L168.162 139.916C167.677 141.121 166.952 142.128 166.015 142.946L166.454 143.449L166.892 143.951C167.988 142.995 168.835 141.815 169.399 140.414L168.78 140.165ZM166.454 143.449L166.015 142.946C165.056 143.783 163.918 144.451 162.6 144.947L162.835 145.571L163.07 146.195C164.522 145.649 165.802 144.903 166.892 143.951L166.454 143.449ZM162.835 145.571L162.599 144.947C161.286 145.445 159.9 145.774 158.458 145.925L158.527 146.589L158.597 147.252C160.151 147.088 161.649 146.734 163.072 146.195L162.835 145.571ZM158.527 146.589L158.458 145.925L142.272 147.626L142.341 148.29L142.411 148.953L158.597 147.252L158.527 146.589ZM142.341 148.29L143.005 148.22L139.515 115.018L138.852 115.088L138.188 115.158L141.678 148.359L142.341 148.29ZM138.852 115.088L138.921 115.751L154.668 114.096L154.598 113.433L154.528 112.77L138.782 114.425L138.852 115.088ZM149.1 141.862L149.17 142.525L157.019 141.7L156.949 141.037L156.879 140.373L149.03 141.198L149.1 141.862ZM156.949 141.037L157.019 141.7C157.78 141.62 158.513 141.475 159.201 141.244L158.988 140.612L158.776 139.98C158.199 140.174 157.565 140.301 156.879 140.373L156.949 141.037ZM158.988 140.612L159.196 141.246C159.901 141.015 160.54 140.689 161.078 140.236L160.648 139.726L160.218 139.216C159.839 139.535 159.362 139.788 158.78 139.978L158.988 140.612ZM160.648 139.726L161.07 140.242C161.615 139.797 162.044 139.219 162.322 138.525L161.703 138.276L161.084 138.028C160.889 138.515 160.595 138.908 160.226 139.209L160.648 139.726ZM161.703 138.276L162.321 138.527C162.615 137.803 162.679 136.944 162.58 136.007L161.917 136.077L161.254 136.147C161.339 136.955 161.268 137.574 161.085 138.026L161.703 138.276ZM161.917 136.077L162.58 136.007C162.388 134.177 161.711 132.78 160.431 131.997L160.083 132.566L159.735 133.135C160.535 133.624 161.086 134.556 161.254 136.147L161.917 136.077ZM160.083 132.566L160.426 131.994C159.224 131.272 157.744 131.039 156.064 131.216L156.134 131.879L156.204 132.543C157.688 132.387 158.856 132.607 159.739 133.138L160.083 132.566ZM156.134 131.879L156.064 131.216L148.069 132.056L148.139 132.72L148.209 133.383L156.204 132.543L156.134 131.879ZM148.139 132.72L147.476 132.789L148.437 141.931L149.1 141.862L149.763 141.792L148.802 132.65L148.139 132.72ZM182.591 124.108L182.521 123.445C181.39 123.564 180.42 123.857 179.639 124.367L180.004 124.925L180.369 125.483C180.921 125.123 181.669 124.876 182.66 124.772L182.591 124.108ZM180.004 124.925L179.636 124.369C178.921 124.841 178.336 125.405 177.904 126.059L178.461 126.427L179.017 126.794C179.337 126.31 179.785 125.869 180.371 125.482L180.004 124.925ZM178.461 126.427L177.901 126.064C177.481 126.713 177.215 127.391 177.091 128.1L177.748 128.215L178.405 128.33C178.497 127.803 178.694 127.293 179.021 126.789L178.461 126.427ZM177.748 128.215L177.092 128.097C176.978 128.733 176.924 129.324 176.946 129.859L177.613 129.831L178.279 129.803C178.262 129.394 178.302 128.903 178.405 128.333L177.748 128.215ZM177.613 129.831L177.682 130.494L188.488 129.358L188.418 128.695L188.349 128.032L177.543 129.168L177.613 129.831ZM188.418 128.695L189.072 128.564C188.713 126.773 187.938 125.453 186.933 124.554L186.488 125.051L186.043 125.548C186.808 126.232 187.454 127.282 187.765 128.827L188.418 128.695ZM186.488 125.051L186.931 124.553C185.86 123.599 184.26 123.262 182.521 123.445L182.591 124.108L182.66 124.772C184.183 124.612 185.353 124.934 186.045 125.549L186.488 125.051ZM147.614 127.728L147.684 128.392L155.127 127.61L155.057 126.946L154.987 126.283L147.545 127.065L147.614 127.728ZM155.057 126.946L155.127 127.61C156.533 127.462 157.725 127.001 158.642 126.171L158.195 125.677L157.748 125.182C157.088 125.779 156.184 126.157 154.987 126.283L155.057 126.946ZM158.195 125.677L158.642 126.172C159.636 125.277 159.954 123.973 159.795 122.455L159.132 122.524L158.468 122.594C158.601 123.86 158.316 124.67 157.749 125.181L158.195 125.677ZM159.132 122.524L159.795 122.455C159.706 121.613 159.481 120.868 159.07 120.279L158.523 120.661L157.976 121.042C158.217 121.388 158.395 121.893 158.468 122.594L159.132 122.524ZM158.523 120.661L159.064 120.27C158.664 119.716 158.155 119.289 157.538 119.016L157.268 119.625L156.997 120.235C157.383 120.406 157.711 120.674 157.982 121.051L158.523 120.661ZM157.268 119.625L157.549 119.021C156.967 118.75 156.333 118.593 155.632 118.547L155.588 119.213L155.544 119.878C156.097 119.915 156.568 120.035 156.986 120.23L157.268 119.625ZM155.588 119.213L155.646 118.548C154.974 118.49 154.292 118.513 153.61 118.585L153.68 119.248L153.75 119.911C154.371 119.846 154.965 119.828 155.531 119.877L155.588 119.213ZM153.68 119.248L153.61 118.585L146.729 119.308L146.799 119.971L146.869 120.635L153.75 119.911L153.68 119.248ZM146.799 119.971L146.136 120.041L146.951 127.798L147.614 127.728L148.278 127.659L147.462 119.902L146.799 119.971ZM188.07 112.167L187.407 112.237L187.751 115.512L188.414 115.442L189.077 115.373L188.733 112.098L188.07 112.167ZM188.414 115.442L188.344 114.779L174.806 116.202L174.875 116.865L174.945 117.529L188.484 116.106L188.414 115.442ZM174.875 116.865L175.539 116.796L175.194 113.521L174.531 113.59L173.868 113.66L174.212 116.935L174.875 116.865ZM174.531 113.59L174.601 114.254L188.14 112.831L188.07 112.167L188 111.504L174.461 112.927L174.531 113.59Z" fill="url(#paint3_linear_4128_10868)" mask="url(#path-5-inside-1_4128_10868)"/>
</g>
<defs>
<filter id="filter0_d_4128_10868" x="0.0016098" y="0.000347137" width="331.192" height="331.202" filterUnits="userSpaceOnUse" color-interpolation-filters="sRGB">
<feFlood flood-opacity="0" result="BackgroundImageFix"/>
<feColorMatrix in="SourceAlpha" type="matrix" values="0 0 0 0 0 0 0 0 0 0 0 0 0 0 0 0 0 0 127 0" result="hardAlpha"/>
<feOffset dy="35.4851"/>
<feGaussianBlur stdDeviation="59.1418"/>
<feComposite in2="hardAlpha" operator="out"/>
<feColorMatrix type="matrix" values="0 0 0 0 0 0 0 0 0 0 0 0 0 0 0 0 0 0 0.15 0"/>
<feBlend mode="normal" in2="BackgroundImageFix" result="effect1_dropShadow_4128_10868"/>
<feBlend mode="normal" in="SourceGraphic" in2="effect1_dropShadow_4128_10868" result="shape"/>
</filter>
<filter id="filter1_f_4128_10868" x="113.601" y="78.1151" width="103.996" height="104.004" filterUnits="userSpaceOnUse" color-interpolation-filters="sRGB">
<feFlood flood-opacity="0" result="BackgroundImageFix"/>
<feBlend mode="normal" in="SourceGraphic" in2="BackgroundImageFix" result="shape"/>
<feGaussianBlur stdDeviation="2.95709" result="effect1_foregroundBlur_4128_10868"/>
</filter>
<filter id="filter2_f_4128_10868" x="114.976" y="98.8063" width="96.6647" height="76.1373" filterUnits="userSpaceOnUse" color-interpolation-filters="sRGB">
<feFlood flood-opacity="0" result="BackgroundImageFix"/>
<feBlend mode="normal" in="SourceGraphic" in2="BackgroundImageFix" result="shape"/>
<feGaussianBlur stdDeviation="10.0041" result="effect1_foregroundBlur_4128_10868"/>
</filter>
<linearGradient id="paint0_linear_4128_10868" x1="159.067" y1="180.177" x2="160.911" y2="93.2307" gradientUnits="userSpaceOnUse">
<stop stop-color="#003AAA"/>
<stop offset="1" stop-color="#A2C1FF"/>
</linearGradient>
<linearGradient id="paint1_linear_4128_10868" x1="161.033" y1="99.2401" x2="161.033" y2="171.132" gradientUnits="userSpaceOnUse">
<stop stop-color="#0057FF" stop-opacity="0.66"/>
<stop offset="1" stop-color="#0057FF"/>
</linearGradient>
<linearGradient id="paint2_linear_4128_10868" x1="161.033" y1="89.1016" x2="161.033" y2="181.271" gradientUnits="userSpaceOnUse">
<stop stop-color="white"/>
<stop offset="1" stop-color="#002C81"/>
</linearGradient>
<linearGradient id="paint3_linear_4128_10868" x1="166" y1="112.234" x2="169.556" y2="146.06" gradientUnits="userSpaceOnUse">
<stop stop-color="white"/>
<stop offset="1" stop-color="white" stop-opacity="0"/>
</linearGradient>
</defs>
</svg>
