<svg width="332" height="332" viewBox="0 0 332 332" fill="none" xmlns="http://www.w3.org/2000/svg">
<g filter="url(#filter0_d_4128_10864)">
<rect x="113.602" y="88.0078" width="94.6182" height="94.6268" rx="47.3091" transform="rotate(-6 113.602 88.0078)" fill="url(#paint0_linear_4128_10864)"/>
<g filter="url(#filter1_f_4128_10864)">
<rect x="114.953" y="89.1016" width="92.1606" height="92.1689" rx="46.0803" transform="rotate(-6 114.953 89.1016)" fill="url(#paint1_linear_4128_10864)"/>
<rect x="115.278" y="89.3647" width="91.5692" height="91.5775" rx="45.7846" transform="rotate(-6 115.278 89.3647)" stroke="url(#paint2_linear_4128_10864)" stroke-width="0.591418"/>
</g>
<g filter="url(#filter2_f_4128_10864)">
<path fill-rule="evenodd" clip-rule="evenodd" d="M186.406 125.432C185.918 123.884 185.279 122.381 184.5 120.963C183.735 119.574 182.839 118.247 181.815 117.024C180.814 115.818 179.683 114.695 178.467 113.7C177.252 112.705 175.93 111.821 174.554 111.082C173.159 110.334 171.687 109.714 170.183 109.246C168.649 108.772 167.062 108.452 165.462 108.292C163.843 108.135 162.172 108.141 160.529 108.314C158.886 108.487 157.25 108.828 155.681 109.33C154.149 109.819 152.663 110.462 151.261 111.245C149.887 112.015 148.576 112.918 147.367 113.949C146.175 114.958 145.066 116.098 144.084 117.324C143.102 118.55 142.228 119.873 141.5 121.271C140.763 122.679 140.152 124.154 139.693 125.683C139.226 127.232 138.913 128.834 138.758 130.45C138.616 132.084 138.626 133.772 138.8 135.432C138.976 137.102 139.316 138.745 139.817 140.332C140.304 141.88 140.944 143.382 141.722 144.8C142.487 146.19 143.384 147.516 144.407 148.74C145.409 149.946 146.539 151.069 147.755 152.064C148.97 153.058 150.292 153.943 151.668 154.682C153.064 155.429 154.535 156.05 156.039 156.517C157.574 156.992 159.161 157.312 160.76 157.472C162.4 157.637 164.061 157.631 165.714 157.457C167.357 157.285 168.993 156.944 170.552 156.442C172.084 155.954 173.57 155.311 174.972 154.527C176.346 153.757 177.657 152.855 178.866 151.824C180.058 150.814 181.167 149.674 182.149 148.449C183.131 147.223 184.005 145.899 184.733 144.502C185.47 143.093 186.08 141.608 186.54 140.09C187.007 138.541 187.32 136.938 187.475 135.323C187.635 133.667 187.626 131.989 187.45 130.319C187.246 128.661 186.906 127.008 186.406 125.432ZM183.84 130.49C183.532 130.452 176.351 129.668 169.308 131.322C169.124 130.973 168.941 130.635 168.747 130.288C168.212 129.311 167.638 128.338 167.046 127.387C174.888 123.146 177.703 117.933 177.745 117.869C181.028 121.13 183.268 125.513 183.84 130.49ZM175.167 115.696C175.127 115.78 172.649 120.639 165.123 124.43C160.881 118.211 156.431 113.384 156.077 113.004C157.602 112.456 159.224 112.077 160.906 111.9C166.167 111.347 171.168 112.818 175.167 115.696ZM156.001 113.032C155.991 113.033 156.001 113.032 156.001 113.032C156.001 113.032 155.973 113.045 155.935 113.058C155.953 113.047 155.973 113.045 156.001 113.032ZM152.258 114.836C152.569 115.18 156.963 120.033 161.239 126.11C151.554 129.84 142.888 130.642 142.343 130.689C143.002 124.053 146.762 118.205 152.258 114.836ZM142.35 135.059C142.326 134.833 142.313 134.616 142.3 134.399C142.671 134.37 152.954 133.527 163.301 129.172C164.018 130.288 164.717 131.417 165.358 132.561C165.094 132.668 164.83 132.776 164.567 132.893C153.749 137.725 149.132 148.512 149.132 148.512L149.142 148.52C145.445 145.144 142.916 140.443 142.35 135.059ZM165.315 153.854C160.288 154.382 155.489 153.059 151.586 150.439C151.882 150.637 152.091 150.754 152.091 150.754C152.091 150.754 155.146 141.562 167.011 135.934C167.057 135.909 167.095 135.895 167.142 135.87C170.865 143.237 172.745 149.526 173.25 151.331C170.864 152.674 168.194 153.551 165.315 153.854ZM176.54 149.058C176.193 147.813 174.447 141.768 170.92 134.5C177.507 132.715 183.507 133.962 183.959 134.053C183.65 139.996 180.864 145.385 176.54 149.058Z" fill="#5C0225"/>
</g>
<path d="M163.396 105.706C165.017 105.535 166.665 105.528 168.261 105.683L168.261 105.684C169.642 105.822 171.012 106.081 172.347 106.457L172.916 106.626C174.214 107.029 175.488 107.548 176.709 108.165L177.229 108.436C178.585 109.165 179.889 110.037 181.088 111.018C182.287 112 183.402 113.108 184.391 114.298L184.392 114.298C185.274 115.354 186.062 116.487 186.751 117.673L187.04 118.184C187.807 119.583 188.438 121.065 188.919 122.592L188.919 122.593C189.351 123.953 189.663 125.373 189.87 126.805L189.951 127.42C190.124 129.066 190.132 130.72 189.974 132.351L189.974 132.352C189.822 133.946 189.513 135.526 189.053 137.054C188.656 138.365 188.145 139.651 187.536 140.883L187.269 141.408C186.552 142.785 185.69 144.091 184.721 145.301C183.752 146.51 182.658 147.634 181.483 148.629L181.482 148.63C180.29 149.647 178.997 150.536 177.641 151.297C176.258 152.069 174.794 152.703 173.283 153.185L173.282 153.185C171.745 153.68 170.132 154.016 168.511 154.187C167.084 154.337 165.652 154.359 164.233 154.253L163.626 154.2C162.048 154.043 160.482 153.727 158.969 153.259L158.968 153.259C157.486 152.798 156.034 152.186 154.657 151.449L154.658 151.449C153.301 150.72 151.997 149.848 150.798 148.866C149.6 147.885 148.483 146.777 147.495 145.587L147.495 145.586L147.122 145.13C146.389 144.206 145.726 143.228 145.135 142.212L144.846 141.7C144.078 140.302 143.447 138.82 142.967 137.293L142.967 137.292C142.473 135.727 142.137 134.106 141.964 132.458C141.791 130.819 141.781 129.152 141.922 127.539C142.075 125.946 142.384 124.366 142.844 122.839C143.24 121.521 143.752 120.242 144.361 119.01L144.628 118.486C145.346 117.108 146.207 115.803 147.177 114.593C148.145 113.384 149.239 112.259 150.415 111.264L150.416 111.263C151.607 110.247 152.9 109.357 154.257 108.597L154.255 108.596C155.465 107.92 156.739 107.351 158.05 106.896L158.614 106.708C160.161 106.213 161.775 105.876 163.396 105.706ZM169.817 132.636C169.804 132.643 169.791 132.65 169.769 132.66C169.751 132.668 169.727 132.679 169.7 132.693C163.712 135.533 159.941 139.276 157.666 142.315C156.529 143.834 155.766 145.177 155.286 146.142C155.047 146.625 154.878 147.013 154.768 147.283C154.763 147.295 154.758 147.307 154.753 147.319C154.707 147.289 154.656 147.258 154.603 147.222L154.232 147.777C158.197 150.438 163.074 151.783 168.182 151.246C171.107 150.939 173.821 150.047 176.246 148.682L176.473 148.554L176.403 148.302C175.895 146.485 174.008 140.174 170.272 132.781L170.118 132.477L169.817 132.636ZM186.857 130.787C186.392 130.693 180.329 129.433 173.665 131.239L173.277 131.344L173.452 131.706C176.967 138.95 178.707 144.974 179.051 146.208L179.192 146.71L179.588 146.373C183.98 142.642 186.81 137.168 187.124 131.131L187.139 130.844L186.857 130.787ZM166.004 125.925C155.71 130.258 145.472 131.098 145.106 131.127L144.779 131.152L144.799 131.479C144.812 131.695 144.825 131.92 144.85 132.154C145.415 137.532 147.91 142.238 151.565 145.654L151.559 145.672L151.753 145.83L151.764 145.839L151.985 145.582C152.236 145.689 152.266 145.702 152.27 145.703L152.271 145.702C152.271 145.701 152.272 145.699 152.273 145.697C152.275 145.692 152.278 145.685 152.283 145.675C152.291 145.656 152.304 145.626 152.322 145.588C152.357 145.51 152.411 145.394 152.484 145.245C152.629 144.945 152.848 144.51 153.146 143.973C153.741 142.898 154.648 141.412 155.89 139.777C158.376 136.504 162.194 132.644 167.536 130.258L167.535 130.257C167.792 130.143 168.051 130.038 168.316 129.931L168.666 129.789L168.481 129.459C167.835 128.306 167.133 127.171 166.414 126.052L166.263 125.816L166.004 125.925ZM180.3 114.745C180.261 114.803 177.484 119.955 169.719 124.155L169.408 124.323L169.595 124.624C170.184 125.571 170.755 126.538 171.287 127.508L171.288 127.511C171.48 127.856 171.662 128.192 171.846 128.538L171.966 128.765L172.217 128.707C179.199 127.067 186.331 127.845 186.632 127.881L187.052 127.932L187.004 127.512C186.423 122.459 184.147 118.005 180.813 114.692L180.524 114.406L180.3 114.745ZM154.916 111.612C149.333 115.035 145.513 120.976 144.843 127.717L144.803 128.117L145.204 128.082C145.764 128.033 154.465 127.227 164.191 123.482L164.59 123.328L164.344 122.979C160.056 116.885 155.651 112.02 155.337 111.673L155.151 111.467L154.916 111.612ZM163.703 108.629C161.994 108.809 160.346 109.194 158.796 109.751L158.32 109.922L158.665 110.292C159.014 110.666 163.451 115.479 167.68 121.678L167.845 121.92L168.105 121.789C175.709 117.958 178.235 113.037 178.3 112.901L178.421 112.649L178.195 112.486C174.132 109.563 169.049 108.067 163.703 108.629Z" fill="white" fill-opacity="0.9" stroke="url(#paint3_linear_4128_10864)" stroke-width="0.666937"/>
</g>
<defs>
<filter id="filter0_d_4128_10864" x="0.0016098" y="0.000347137" width="331.192" height="331.202" filterUnits="userSpaceOnUse" color-interpolation-filters="sRGB">
<feFlood flood-opacity="0" result="BackgroundImageFix"/>
<feColorMatrix in="SourceAlpha" type="matrix" values="0 0 0 0 0 0 0 0 0 0 0 0 0 0 0 0 0 0 127 0" result="hardAlpha"/>
<feOffset dy="35.4851"/>
<feGaussianBlur stdDeviation="59.1418"/>
<feComposite in2="hardAlpha" operator="out"/>
<feColorMatrix type="matrix" values="0 0 0 0 0 0 0 0 0 0 0 0 0 0 0 0 0 0 0.15 0"/>
<feBlend mode="normal" in2="BackgroundImageFix" result="effect1_dropShadow_4128_10864"/>
<feBlend mode="normal" in="SourceGraphic" in2="effect1_dropShadow_4128_10864" result="shape"/>
</filter>
<filter id="filter1_f_4128_10864" x="113.601" y="78.1151" width="103.996" height="104.004" filterUnits="userSpaceOnUse" color-interpolation-filters="sRGB">
<feFlood flood-opacity="0" result="BackgroundImageFix"/>
<feBlend mode="normal" in="SourceGraphic" in2="BackgroundImageFix" result="shape"/>
<feGaussianBlur stdDeviation="2.95709" result="effect1_foregroundBlur_4128_10864"/>
</filter>
<filter id="filter2_f_4128_10864" x="118.652" y="88.1716" width="88.9459" height="89.4283" filterUnits="userSpaceOnUse" color-interpolation-filters="sRGB">
<feFlood flood-opacity="0" result="BackgroundImageFix"/>
<feBlend mode="normal" in="SourceGraphic" in2="BackgroundImageFix" result="shape"/>
<feGaussianBlur stdDeviation="10.0041" result="effect1_foregroundBlur_4128_10864"/>
</filter>
<linearGradient id="paint0_linear_4128_10864" x1="159.067" y1="180.177" x2="160.911" y2="93.2307" gradientUnits="userSpaceOnUse">
<stop stop-color="#8F0239"/>
<stop offset="1" stop-color="#FFAECD"/>
</linearGradient>
<linearGradient id="paint1_linear_4128_10864" x1="161.033" y1="99.2401" x2="161.033" y2="171.132" gradientUnits="userSpaceOnUse">
<stop stop-color="#EA4C89"/>
<stop offset="1" stop-color="#C32361"/>
</linearGradient>
<linearGradient id="paint2_linear_4128_10864" x1="161.033" y1="89.1016" x2="161.033" y2="181.271" gradientUnits="userSpaceOnUse">
<stop stop-color="white"/>
<stop offset="1" stop-color="#74002D"/>
</linearGradient>
<linearGradient id="paint3_linear_4128_10864" x1="163.376" y1="105.373" x2="168.541" y2="154.519" gradientUnits="userSpaceOnUse">
<stop stop-color="white"/>
<stop offset="1" stop-color="white" stop-opacity="0"/>
</linearGradient>
</defs>
</svg>
