<svg width="32" height="32" viewBox="0 0 32 32" fill="none" xmlns="http://www.w3.org/2000/svg">
<path d="M22.7064 17.7966C23.4284 17.4645 23.7894 17.2984 23.8946 17.134C24 16.9696 24 16.7077 24 16.1839V15.8141C24 15.2904 24 15.0283 23.8946 14.8639C23.7894 14.6995 23.4283 14.5335 22.7064 14.2015C21.6359 13.7092 20.9484 12.632 20.9852 11.5048C21.0133 10.6435 21.0274 10.2128 20.934 10.0491C20.8405 9.88534 20.6144 9.7614 20.162 9.51356L19.7318 9.27789C19.2932 9.03761 19.0739 8.91747 18.8865 8.92632C18.6993 8.93517 18.3807 9.15108 17.7436 9.58289C16.7074 10.2851 15.2939 10.2851 14.2578 9.58282C13.6205 9.15101 13.3021 8.93509 13.1147 8.92624C12.9273 8.91738 12.7081 9.03753 12.2695 9.27781L11.8393 9.51347C11.3869 9.7613 11.1608 9.8852 11.0674 10.0489C10.974 10.2126 10.988 10.6433 11.0159 11.5048C11.0525 12.632 10.3644 13.7092 9.29365 14.2015C8.57173 14.5334 8.21076 14.6993 8.10539 14.8638C8 15.0282 8 15.2901 8 15.8141V16.1839C8 16.7077 8 16.9698 8.10536 17.1342C8.21073 17.2985 8.5717 17.4646 9.29364 17.7966C10.3641 18.2889 11.0516 19.3661 11.0148 20.4932C10.9867 21.3546 10.9726 21.7853 11.066 21.949C11.1594 22.1128 11.3856 22.2366 11.838 22.4844L12.2682 22.7202C12.7069 22.9604 12.9262 23.0806 13.1136 23.0718C13.301 23.0628 13.6193 22.847 14.2562 22.415C15.2932 21.7119 16.7081 21.7119 17.7449 22.415C18.3819 22.8469 18.7004 23.0628 18.8877 23.0716C19.0751 23.0806 19.2945 22.9604 19.7331 22.7201L20.1632 22.4844C20.6157 22.2365 20.842 22.1125 20.9353 21.9487C21.0289 21.7849 21.0146 21.3545 20.9863 20.4932C20.9492 19.3661 21.6363 18.2889 22.7064 17.7966Z" stroke="white" stroke-width="1.8125" stroke-linecap="round"/>
<path d="M15.9994 18.3347C17.2881 18.3347 18.3327 17.29 18.3327 16.0013C18.3327 14.7127 17.2881 13.668 15.9994 13.668C14.7108 13.668 13.666 14.7127 13.666 16.0013C13.666 17.29 14.7108 18.3347 15.9994 18.3347Z" stroke="white" stroke-width="1.8125"/>
<path d="M25.3327 2.66797V6.47939C22.9277 4.12173 19.6333 2.66797 15.9993 2.66797C8.63555 2.66797 2.66602 8.6375 2.66602 16.0013C2.66602 17.8976 3.06187 19.7014 3.77547 21.3346M6.66602 29.3346V25.5232C9.07101 27.8809 12.3654 29.3346 15.9993 29.3346C23.3631 29.3346 29.3327 23.3651 29.3327 16.0013C29.3327 14.105 28.9368 12.3012 28.2232 10.668" stroke="white" stroke-width="1.8125" stroke-linecap="round" stroke-linejoin="round"/>
</svg>
