<svg width="38" height="38" viewBox="0 0 38 38" fill="none" xmlns="http://www.w3.org/2000/svg">
<g clip-path="url(#clip0_4432_19496)">
<path d="M33.7643 15.0933C33.4386 15.039 33.1129 15.3105 33.1129 15.6362C32.8415 18.0247 31.7558 19.5447 30.67 21.0105C30.0186 21.8247 29.4215 22.7476 28.9872 23.6704C28.2272 25.4619 27.9015 27.4162 28.1186 29.3704C28.2815 31.3247 28.77 33.1705 29.5843 34.9619C29.8015 35.3419 29.7472 35.7762 29.53 36.1562C29.3129 36.5362 28.9329 36.7533 28.4986 36.7533H16.0672C15.5243 36.7533 15.09 36.4276 14.8729 35.939C14.4386 34.6904 13.8958 33.659 13.2443 32.9533C13.8958 32.6819 14.7643 32.3019 15.6329 31.8133C18.0215 30.5104 19.2158 29.099 19.1615 27.6876C19.1615 27.3619 18.89 27.0904 18.5643 27.0904C18.2386 27.0904 17.9672 27.3619 17.9672 27.6876C17.9672 28.6104 16.9358 29.6962 15.09 30.7276C13.5158 31.5962 11.9415 32.139 11.9415 32.139C10.2586 32.7362 8.57575 33.2247 6.83861 33.659C5.97004 33.8219 5.10147 33.3333 4.88433 32.4647V32.4104C4.66718 31.8676 4.6129 31.2162 4.77575 30.619C4.88433 30.2933 4.88433 29.9676 4.83004 29.6419C4.83004 29.6419 4.83004 29.6419 4.83004 29.5876C4.72147 29.1533 4.34147 28.9362 4.01575 28.719C3.8529 28.6104 3.74433 28.5562 3.63575 28.5019C3.58147 28.4476 3.52718 28.3933 3.52718 28.339C3.52718 28.1762 3.58147 27.959 3.63575 27.7962C3.79861 27.5247 3.74433 27.199 3.4729 26.9819C3.25575 26.819 3.03861 26.6562 2.93004 26.5476C2.82147 26.439 2.76718 26.3304 3.0929 25.7876C3.20147 25.6247 3.25575 25.4619 3.36433 25.2447C3.4729 24.919 3.52718 24.5933 3.4729 24.2676C3.41861 23.8333 2.98433 23.6162 2.38718 23.2904C2.17004 23.1819 2.00718 23.0733 1.84433 22.9647C1.84433 22.9647 1.79004 22.9647 1.79004 22.9104C1.51861 22.7476 1.30147 22.4762 1.1929 22.1504C1.1929 21.6619 1.79004 20.9019 3.4729 19.1105C4.01575 18.459 4.39575 17.6447 4.45004 16.8305C4.50433 16.7219 4.50433 16.6133 4.6129 16.5047C4.66718 16.3419 4.77575 16.2333 4.77575 16.0705C4.77575 16.0162 4.77575 15.9619 4.77575 15.9076C4.77575 15.4733 4.39575 15.1476 4.07004 14.8219L4.01575 14.7676C3.69004 14.5505 3.4729 14.2247 3.36433 13.8447C3.36433 13.3562 3.52718 12.8133 3.79861 12.379V12.3247C4.01575 11.8362 4.2329 11.2933 4.39575 10.8047L4.45004 10.5876C4.55861 9.93617 4.77575 9.28474 4.9929 8.63331C5.48147 7.22188 6.29575 5.91902 7.32718 4.83331C8.90147 3.20474 11.0729 2.49902 13.0272 2.06474C17.9672 0.924739 21.7129 0.979025 24.97 2.2276C25.2958 2.33617 25.6215 2.17331 25.7843 1.90188C25.8929 1.57617 25.73 1.25045 25.4586 1.0876C21.9843 -0.269546 17.9672 -0.323832 12.7558 0.870454C10.6929 1.35902 8.25004 2.06474 6.5129 3.96474C5.3729 5.21331 4.50433 6.62474 3.90718 8.19902C3.69004 8.85045 3.4729 9.55617 3.31004 10.2619L3.25575 10.479C3.14718 10.9133 2.98433 11.3476 2.76718 11.7819C2.38718 12.4333 2.17004 13.139 2.17004 13.899C2.17004 13.9533 2.17004 14.0076 2.17004 14.0619C2.3329 14.7676 2.7129 15.3647 3.25575 15.7447C3.31004 15.799 3.41861 15.8533 3.4729 15.9619C3.36433 16.179 3.25575 16.3962 3.20147 16.6676V16.7219C3.14718 17.319 2.87575 17.9162 2.49575 18.4047C0.541468 20.5219 -0.164246 21.3904 -0.0556745 22.4219V22.4762C0.107183 23.1819 0.487183 23.7247 1.13861 24.1047C1.41004 24.159 1.62718 24.3219 1.89861 24.4304C2.00718 24.4847 2.17004 24.5933 2.3329 24.6476C2.3329 24.7019 2.3329 24.7019 2.27861 24.7562C2.22433 24.919 2.11575 25.0819 2.06147 25.1904C1.9529 25.4076 1.73575 25.7333 1.68147 26.1133C1.5729 26.6562 1.73575 27.1447 2.17004 27.4704C2.17004 27.579 2.27861 27.6333 2.3329 27.6876C2.27861 27.9047 2.22433 28.1762 2.27861 28.4476C2.27861 28.4476 2.27861 28.4476 2.27861 28.5019C2.3329 28.8819 2.55004 29.2619 2.87575 29.5333C3.03861 29.6419 3.25575 29.7504 3.36433 29.859C3.41861 29.9133 3.52718 29.9676 3.63575 30.0219C3.63575 30.1304 3.63575 30.239 3.58147 30.2933C3.58147 30.2933 3.58147 30.2933 3.58147 30.3476C3.36433 31.1619 3.36433 32.0847 3.69004 32.899C4.12433 34.3647 5.59004 35.2333 7.05575 34.9076C8.73861 34.5276 10.3672 34.039 11.9958 33.4419C12.6472 33.9304 13.2443 35.0162 13.7329 36.3733C14.0586 37.3504 14.9815 38.0562 16.0672 38.0562H28.4443C29.3129 38.0562 30.0729 37.6219 30.5072 36.9162C30.9415 36.2104 30.9958 35.2876 30.6158 34.5276C29.8558 32.899 29.4215 31.1619 29.2586 29.3704C29.0415 27.6333 29.3129 25.8962 30.0186 24.3219C30.4529 23.4533 30.9415 22.639 31.5386 21.879C32.6786 20.359 33.9272 18.6762 34.1986 15.9619C34.3615 15.4733 34.09 15.1476 33.7643 15.0933Z" fill="url(#paint0_linear_4432_19496)"/>
<path d="M37.5084 7.87193L36.7484 7.43764C36.6941 7.00336 36.5312 6.56907 36.4226 6.13479L36.9112 5.37479C37.1284 5.04907 37.0741 4.61479 36.8569 4.28907L36.6398 3.96336L35.6084 2.60622C35.2826 2.33479 34.8484 2.17193 34.4684 2.2805L33.6541 2.55193C33.2741 2.2805 32.8941 2.06336 32.4598 1.84622L32.2427 0.977644C32.1341 0.597644 31.8084 0.326215 31.4284 0.27193L29.4198 0.000501017C29.0398 -0.0537847 28.6598 0.163358 28.4427 0.489072L28.0084 1.24907C27.5741 1.35764 27.1398 1.46622 26.7055 1.62907L25.9455 1.1405C25.6198 0.923358 25.1855 0.977644 24.8598 1.19479L23.2312 2.44336C22.9055 2.71479 22.7969 3.14907 22.9055 3.52907L23.0684 4.01764C22.9598 3.90907 22.7969 3.85479 22.6341 3.85479L20.0827 3.47479C19.6484 3.4205 19.2684 3.63764 19.0512 4.01764L18.5084 4.99479C17.9112 5.10336 17.3684 5.26622 16.8255 5.42907L15.7941 4.88622C15.4141 4.66907 14.9798 4.66907 14.6541 4.9405L12.6455 6.4605C12.3198 6.73193 12.1569 7.16622 12.2655 7.54622L12.5912 8.63193C12.2655 9.1205 11.9398 9.60907 11.7227 10.1519L10.6369 10.4234C10.2027 10.5319 9.93122 10.8576 9.87694 11.2919L9.55122 13.7891C9.49694 14.2234 9.71408 14.6034 10.0941 14.8205L11.0712 15.3634C11.1798 15.9605 11.3427 16.5034 11.5055 17.0462L10.9084 18.0234C10.6912 18.4034 10.6912 18.8376 10.9627 19.1634L12.4827 21.1719C12.7541 21.4976 13.1884 21.6605 13.5684 21.5519L14.6541 21.2262C15.1427 21.5519 15.6312 21.8776 16.1741 22.0948L16.4455 23.1805C16.5541 23.6148 16.8798 23.8862 17.3141 23.9405L19.8112 24.2662C19.8655 24.2662 19.9198 24.2662 19.9198 24.2662C20.2998 24.2662 20.6255 24.0491 20.8427 23.7234L21.3855 22.7462C21.9827 22.6376 22.5255 22.4748 23.0684 22.3119L24.0455 22.9091C24.4255 23.1262 24.8598 23.1262 25.1855 22.8548L27.1941 21.3348C27.5198 21.0634 27.6827 20.6291 27.5741 20.2491L27.2484 19.1634C27.5741 18.6748 27.8998 18.1862 28.1169 17.6434L29.2027 17.3719C29.5827 17.2634 29.8541 16.9919 29.9627 16.6662C30.1255 16.6119 30.2884 16.5034 30.3427 16.3405L30.5055 16.0691C30.9398 16.0148 31.3741 15.8519 31.8084 15.7434L32.5684 16.2319C32.8941 16.4491 33.3284 16.3948 33.6541 16.1776L35.2827 14.9291C35.6084 14.7119 35.7169 14.2776 35.6084 13.8976L35.4455 13.0291C35.7169 12.6491 35.9341 12.2691 36.1512 11.8348L37.0198 11.6176C37.3998 11.5091 37.6712 11.1834 37.7255 10.8034L37.8884 9.77193L38.0512 8.7405C38.0512 8.41479 37.8341 8.03479 37.5084 7.87193ZM28.8769 16.2319L27.6284 16.5576C27.4112 16.6119 27.3027 16.7205 27.1941 16.9376C26.9227 17.5891 26.5969 18.1862 26.1627 18.7291C26.0541 18.8919 25.9998 19.1091 26.0541 19.2719L26.4341 20.5205L24.6427 21.8776L23.5027 21.1719C23.3398 21.0634 23.1227 21.0634 22.9598 21.1176C22.3084 21.3891 21.6569 21.5519 20.9512 21.6605C20.7341 21.6605 20.5712 21.8234 20.5169 21.9862L19.8655 23.1262L17.6398 22.8548L17.3141 21.6062C17.2598 21.3891 17.1512 21.2805 16.9341 21.1719C16.2827 20.9005 15.6855 20.5748 15.1427 20.1405C14.9798 20.0319 14.7627 19.9776 14.5998 20.0319L13.3512 20.4119L11.9941 18.6205L12.6998 17.4805C12.8084 17.3176 12.8084 17.1005 12.7541 16.9376C12.4827 16.2862 12.3198 15.6348 12.2112 14.9291C12.2112 14.7119 12.0484 14.5491 11.8855 14.4948L10.7455 13.8434L11.0169 11.6176L12.2655 11.2919C12.4827 11.2376 12.5912 11.1291 12.6998 10.9119C12.9712 10.2605 13.2969 9.66336 13.7312 9.1205C13.8398 8.95764 13.8941 8.7405 13.8398 8.57764L13.4598 7.32907L15.2512 5.97193L16.3912 6.67764C16.5541 6.78622 16.7712 6.78622 16.9341 6.73193C17.5855 6.4605 18.2369 6.29764 18.9427 6.18907C19.1598 6.18907 19.3227 6.02622 19.3769 5.86336L20.0284 4.72336L22.2541 4.99479L22.5798 6.24336C22.6341 6.4605 22.7427 6.56907 22.9598 6.67764C23.6112 6.94907 24.2084 7.27479 24.7512 7.70907C24.9141 7.81764 25.1312 7.87193 25.2941 7.81764L26.5427 7.43764L27.8998 9.22907L27.1941 10.3691C27.0855 10.5319 27.0855 10.7491 27.1398 10.9119C27.4112 11.5634 27.5741 12.2148 27.6827 12.9205C27.6827 13.1376 27.8455 13.3005 28.0084 13.3548L29.1484 14.0062L28.8769 16.2319ZM29.0941 12.5405H29.0398L28.8769 12.4862C28.7684 11.8891 28.6055 11.3462 28.4427 10.8034L29.0398 9.82622C29.2569 9.44622 29.2569 9.01193 28.9855 8.68622L27.4655 6.67764C27.1941 6.35193 26.7598 6.18907 26.3798 6.29764C27.1398 5.26622 28.4969 4.72336 29.7998 4.88622C31.9169 5.15764 33.3827 7.11193 33.1112 9.17479C32.8398 11.1834 31.0484 12.6491 29.0941 12.5405ZM36.6398 9.66336L36.5312 10.5319L35.5541 10.7491C35.3369 10.8034 35.2284 10.9119 35.1198 11.1291C34.9026 11.6176 34.6312 12.1062 34.3055 12.5948C34.1969 12.7576 34.1427 12.9748 34.1969 13.1376L34.4684 14.1148L33.1112 15.0919L32.2427 14.5491C32.0798 14.4405 31.8627 14.4405 31.6998 14.4948C31.2655 14.7119 30.7769 14.8205 30.2884 14.8748L30.3969 14.0062C30.3969 13.8434 30.3969 13.7348 30.3427 13.6262C32.3512 13.1919 33.9798 11.5091 34.3055 9.33764C34.6855 6.56907 32.7312 4.01764 29.9627 3.63764C27.8455 3.36622 25.8369 4.45193 24.8055 6.29764C24.4255 6.0805 24.0455 5.86336 23.6655 5.7005C23.7198 5.64622 23.7198 5.64622 23.7741 5.59193C23.9369 5.3205 24.0998 5.10336 24.2627 4.83193C24.3712 4.66907 24.4255 4.45193 24.3712 4.28907L24.0998 3.31193L25.4569 2.2805L26.3255 2.82336C26.4884 2.93193 26.7055 2.93193 26.8684 2.87764C27.4112 2.6605 27.8998 2.49764 28.4969 2.44336C28.7141 2.44336 28.8769 2.2805 28.9312 2.11764L29.4198 1.24907L31.1027 1.46622L31.3198 2.44336C31.3741 2.6605 31.4827 2.76907 31.6998 2.87764C32.2427 3.09479 32.6769 3.36622 33.1655 3.69193C33.3284 3.8005 33.5455 3.85479 33.7084 3.8005L34.6855 3.52907L35.6084 4.72336L35.7169 4.88622L35.1741 5.75479C35.0655 5.91764 35.0655 6.13479 35.1198 6.29764C35.3369 6.8405 35.4998 7.32907 35.5541 7.92622C35.5541 8.14336 35.7169 8.30622 35.8798 8.3605L36.7484 8.84907L36.6398 9.66336Z" fill="url(#paint1_linear_4432_19496)"/>
<path d="M20.7322 7.98168C17.4208 7.54739 14.3808 9.88168 13.9465 13.1931C13.5122 16.5045 15.8465 19.5445 19.1579 19.9788C19.4294 20.0331 19.7008 20.0331 19.9722 20.0331C22.9579 20.0331 25.5637 17.8074 25.9437 14.7674C26.3779 11.456 24.0437 8.41596 20.7322 7.98168ZM24.7494 14.5503C24.4237 17.156 21.9808 19.056 19.3751 18.676C16.7694 18.3503 14.8694 15.9074 15.2494 13.3017C15.5751 10.8588 17.638 9.12168 20.0265 9.12168C20.2437 9.12168 20.4608 9.12168 20.6779 9.17596C23.2294 9.50168 25.0751 11.9445 24.7494 14.5503Z" fill="url(#paint2_linear_4432_19496)"/>
</g>
<defs>
<linearGradient id="paint0_linear_4432_19496" x1="-6.0713" y1="19.0378" x2="34.2473" y2="19.0378" gradientUnits="userSpaceOnUse">
<stop stop-color="#662FFF"/>
<stop offset="1" stop-color="#EA25F5"/>
</linearGradient>
<linearGradient id="paint1_linear_4432_19496" x1="4.55402" y1="12.1292" x2="38.0512" y2="12.1292" gradientUnits="userSpaceOnUse">
<stop stop-color="#662FFF"/>
<stop offset="1" stop-color="#EA25F5"/>
</linearGradient>
<linearGradient id="paint2_linear_4432_19496" x1="11.7768" y1="13.9814" x2="25.9957" y2="13.9814" gradientUnits="userSpaceOnUse">
<stop stop-color="#662FFF"/>
<stop offset="1" stop-color="#EA25F5"/>
</linearGradient>
<clipPath id="clip0_4432_19496">
<rect width="38" height="38" fill="white"/>
</clipPath>
</defs>
</svg>
