<svg width="40" height="40" viewBox="0 0 40 40" fill="none" xmlns="http://www.w3.org/2000/svg">
<g clip-path="url(#clip0_4432_19473)">
<path d="M20 40C14.6857 40 9.65714 37.9429 5.88571 34.1143C2.11429 30.2857 0 25.3143 0 20C0 14.6857 2.05714 9.65714 5.88571 5.88571C9.71429 2.11429 14.6857 0 20 0C25.3143 0 30.3429 2.05714 34.1143 5.88571C37.8857 9.71429 40 14.6857 40 20C40 25.3143 37.9429 30.3429 34.1143 34.1143C30.2857 37.8857 25.3143 40 20 40ZM20 1.31429C15.0286 1.31429 10.2857 3.25714 6.74286 6.8C3.2 10.3429 1.31429 15.0286 1.31429 20C1.31429 24.9714 3.25714 29.7143 6.8 33.2571C10.3429 36.8 15.0286 38.7429 20.0571 38.7429C25.0857 38.7429 29.7714 36.8 33.3143 33.2571C36.8571 29.7143 38.8 25.0286 38.8 20C38.8 14.9714 36.8571 10.2857 33.3143 6.74286C29.7143 3.25714 24.9714 1.31429 20 1.31429Z" fill="url(#paint0_linear_4432_19473)"/>
<path d="M18.8559 20.3999L12.4559 16.7427C11.9988 16.5142 11.9988 16.457 11.8273 16.457C11.5988 16.457 11.3702 16.5713 11.2559 16.7999C11.0845 17.0856 11.0273 17.3713 11.0273 17.657V24.6285C11.0273 25.257 11.3702 25.8285 11.8845 26.1142L17.9416 29.5999C18.2273 29.7713 18.5131 29.8285 18.7988 29.8285C19.1416 29.8285 19.4273 29.5427 19.4273 29.1999V21.1427C19.4273 21.0285 19.3702 20.9142 19.3131 20.7999C19.3131 20.6856 19.3131 20.6856 18.8559 20.3999ZM18.2273 28.2285L12.5702 25.0285C12.4559 24.9713 12.3416 24.7999 12.3416 24.6856V18.1713C13.8845 19.0856 17.1416 20.9142 18.1702 21.5427V28.2285H18.2273Z" fill="url(#paint1_linear_4432_19473)"/>
<path d="M28.6856 16.8004C28.6285 16.6861 28.5713 16.6289 28.457 16.5718C28.1142 16.4004 27.8856 16.5147 27.7142 16.6289L20.7999 20.6289C20.6285 20.7432 20.457 20.9718 20.457 21.2004V29.2575C20.457 29.6004 20.7427 29.8861 21.0856 29.8861C21.3713 29.8861 21.657 29.8289 21.9427 29.6575L27.9999 26.1718C28.5142 25.8861 28.857 25.3147 28.857 24.6861V17.6575C28.9142 17.3718 28.7999 17.0861 28.6856 16.8004ZM27.5999 24.6289C27.5999 24.8004 27.5427 24.9146 27.3713 24.9718L21.7713 28.2289V21.5432C22.7999 20.9718 26.057 19.0861 27.5999 18.1718V24.6289Z" fill="url(#paint2_linear_4432_19473)"/>
<path d="M27.597 15.2569C27.6541 15.0855 27.597 14.9141 27.5398 14.7426C27.3684 14.4569 27.197 14.2855 26.9113 14.1141L20.8541 10.6283C20.3398 10.3426 19.6541 10.3426 19.1398 10.6283L13.0827 14.1141C12.797 14.2855 12.6256 14.4569 12.4541 14.7426C12.397 14.8569 12.3398 14.9712 12.3398 15.0855C12.3398 15.4855 12.6256 15.5998 12.7398 15.7141L19.6541 19.7141C19.7684 19.7712 19.8827 19.8283 19.997 19.8283C20.1113 19.8283 20.2256 19.7712 20.3398 19.7141L27.3113 15.7141C27.4256 15.5426 27.5398 15.4283 27.597 15.2569ZM19.997 18.3426C18.9684 17.7712 15.7113 15.8855 14.1684 14.9712L19.7684 11.7141C19.8827 11.6569 20.0541 11.6569 20.1684 11.7141L25.7684 14.9712L19.997 18.3426Z" fill="url(#paint3_linear_4432_19473)"/>
<path d="M9.88638 20.6869L8.34353 19.1441C8.11496 18.9155 7.65781 18.9155 7.42924 19.1441C7.20067 19.3727 7.20067 19.8298 7.42924 20.0584L7.88638 20.5155H3.88638C3.54353 20.5155 3.25781 20.8012 3.25781 21.1441C3.25781 21.4869 3.54353 21.7727 3.88638 21.7727H7.88638L7.3721 22.2869C7.14353 22.5155 7.14353 22.9727 7.3721 23.2012C7.48638 23.3155 7.65781 23.3727 7.82924 23.3727C8.00067 23.3727 8.1721 23.3155 8.28638 23.2012L9.82924 21.6584C9.94353 21.5441 10.0007 21.3727 10.0007 21.2012C10.0007 21.0298 10.0007 20.8012 9.88638 20.6869Z" fill="url(#paint4_linear_4432_19473)"/>
<path d="M30.1167 20.6869L31.6596 19.1441C31.8882 18.9155 32.3453 18.9155 32.5739 19.1441C32.8025 19.3727 32.8025 19.8298 32.5739 20.0584L32.1167 20.5155H36.1167C36.4596 20.5155 36.7453 20.8012 36.7453 21.1441C36.7453 21.4869 36.4596 21.7727 36.1167 21.7727H32.1167L32.5739 22.2298C32.8025 22.4584 32.8025 22.9155 32.5739 23.1441C32.4596 23.2584 32.2882 23.3155 32.1167 23.3155C31.9453 23.3155 31.7739 23.2584 31.6596 23.1441L30.1167 21.6012C30.0025 21.4869 29.9453 21.3155 29.9453 21.1441C29.9453 20.9727 30.0025 20.8012 30.1167 20.6869Z" fill="url(#paint5_linear_4432_19473)"/>
<path d="M19.5424 30.6871L17.9996 32.2299C17.771 32.4585 17.771 32.9156 17.9996 33.1442C18.2281 33.3728 18.6853 33.3728 18.9138 33.1442L19.371 32.6871V36.6871C19.371 37.0299 19.6567 37.3156 19.9996 37.3156C20.3424 37.3156 20.6281 37.0299 20.6281 36.6871V32.6871L21.0853 33.1442C21.3138 33.3728 21.771 33.3728 21.9996 33.1442C22.1138 33.0299 22.171 32.8585 22.171 32.6871C22.171 32.5156 22.1138 32.3442 21.9996 32.2299L20.4567 30.6871C20.3424 30.5728 20.171 30.5156 19.9996 30.5156C19.8281 30.5156 19.6567 30.5156 19.5424 30.6871Z" fill="url(#paint6_linear_4432_19473)"/>
<path d="M19.5424 9.31607L17.9996 7.77321C17.771 7.54464 17.771 7.0875 17.9996 6.85893C18.2281 6.63036 18.6853 6.63036 18.9138 6.85893L19.371 7.31607V3.31607C19.371 2.97321 19.6567 2.6875 19.9996 2.6875C20.3424 2.6875 20.6281 2.97321 20.6281 3.31607V7.31607L21.0853 6.85893C21.3138 6.63036 21.771 6.63036 21.9996 6.85893C22.1138 6.97321 22.171 7.14464 22.171 7.31607C22.171 7.4875 22.1138 7.65893 21.9996 7.77321L20.4567 9.31607C20.3424 9.43036 20.171 9.4875 19.9996 9.4875C19.8281 9.4875 19.6567 9.4875 19.5424 9.31607Z" fill="url(#paint7_linear_4432_19473)"/>
</g>
<defs>
<linearGradient id="paint0_linear_4432_19473" x1="-7" y1="20" x2="40" y2="20" gradientUnits="userSpaceOnUse">
<stop stop-color="#662FFF"/>
<stop offset="1" stop-color="#EA25F5"/>
</linearGradient>
<linearGradient id="paint1_linear_4432_19473" x1="9.55734" y1="23.1427" x2="19.4273" y2="23.1427" gradientUnits="userSpaceOnUse">
<stop stop-color="#662FFF"/>
<stop offset="1" stop-color="#EA25F5"/>
</linearGradient>
<linearGradient id="paint2_linear_4432_19473" x1="18.9844" y1="23.1852" x2="28.8722" y2="23.1852" gradientUnits="userSpaceOnUse">
<stop stop-color="#662FFF"/>
<stop offset="1" stop-color="#EA25F5"/>
</linearGradient>
<linearGradient id="paint3_linear_4432_19473" x1="9.6657" y1="15.1212" x2="27.6207" y2="15.1212" gradientUnits="userSpaceOnUse">
<stop stop-color="#662FFF"/>
<stop offset="1" stop-color="#EA25F5"/>
</linearGradient>
<linearGradient id="paint4_linear_4432_19473" x1="2.07781" y1="21.1727" x2="10.0007" y2="21.1727" gradientUnits="userSpaceOnUse">
<stop stop-color="#662FFF"/>
<stop offset="1" stop-color="#EA25F5"/>
</linearGradient>
<linearGradient id="paint5_linear_4432_19473" x1="28.7553" y1="21.1441" x2="36.7453" y2="21.1441" gradientUnits="userSpaceOnUse">
<stop stop-color="#662FFF"/>
<stop offset="1" stop-color="#EA25F5"/>
</linearGradient>
<linearGradient id="paint6_linear_4432_19473" x1="17.0681" y1="33.9156" x2="22.171" y2="33.9156" gradientUnits="userSpaceOnUse">
<stop stop-color="#662FFF"/>
<stop offset="1" stop-color="#EA25F5"/>
</linearGradient>
<linearGradient id="paint7_linear_4432_19473" x1="17.0681" y1="6.0875" x2="22.171" y2="6.0875" gradientUnits="userSpaceOnUse">
<stop stop-color="#662FFF"/>
<stop offset="1" stop-color="#EA25F5"/>
</linearGradient>
<clipPath id="clip0_4432_19473">
<rect width="40" height="40" fill="white"/>
</clipPath>
</defs>
</svg>
