<svg width="40" height="40" viewBox="0 0 40 40" fill="none" xmlns="http://www.w3.org/2000/svg">
<g clip-path="url(#clip0_4824_29541)">
<path d="M30.9343 5.16027L27.0126 3.10231C23.5703 1.29582 21.8491 0.392578 19.9976 0.392578C18.146 0.392578 16.4249 1.29582 12.9824 3.10231L12.3516 3.43336L29.8478 13.4312L37.7237 9.49321C36.4565 8.05825 34.4122 6.9854 30.9343 5.16027Z" fill="white"/>
<path d="M39.1125 12.0879L31.2726 16.0079V21.9618C31.2726 22.774 30.6143 23.4324 29.802 23.4324C28.9899 23.4324 28.3315 22.774 28.3315 21.9618V17.4785L21.4688 20.9099V39.4206C22.8764 39.07 24.478 38.2295 27.0132 36.8991L30.9349 34.8412C35.1538 32.6272 37.2632 31.5201 38.4346 29.531C39.6059 27.5417 39.6059 25.0664 39.6059 20.1157V19.8864C39.6059 16.1752 39.6059 13.8551 39.1125 12.0879Z" fill="white"/>
<path d="M18.5279 39.4206V20.9099L0.884034 12.0879C0.390625 13.8551 0.390625 16.1752 0.390625 19.8864V20.1157C0.390625 25.0664 0.390625 27.5417 1.56199 29.531C2.73335 31.5201 4.84282 32.6272 9.06175 34.8412L12.9833 36.8991C15.5185 38.2295 17.1201 39.07 18.5279 39.4206Z" fill="white"/>
<path d="M2.27344 9.49286L19.9996 18.3559L26.688 15.0117L9.26338 5.05469L9.06285 5.15991C5.58492 6.98505 3.54051 8.05791 2.27344 9.49286Z" fill="white"/>
</g>
<defs>
<clipPath id="clip0_4824_29541">
<rect width="40" height="40" fill="white"/>
</clipPath>
</defs>
</svg>
