<svg width="20" height="20" viewBox="0 0 20 20" fill="none" xmlns="http://www.w3.org/2000/svg">
<path d="M7.60984 7.22649L9.42877 3.37133C9.48171 3.25976 9.56315 3.16592 9.66393 3.10033C9.76472 3.03474 9.88087 3 9.99937 3C10.1179 3 10.234 3.03474 10.3348 3.10033C10.4356 3.16592 10.517 3.25976 10.57 3.37133L12.3889 7.22649L16.4552 7.84839C16.5725 7.8655 16.6829 7.91698 16.7737 7.99694C16.8645 8.0769 16.9321 8.18213 16.9689 8.3006C17.0056 8.41908 17.0099 8.54604 16.9814 8.66698C16.9528 8.78793 16.8925 8.89799 16.8074 8.9846L13.8655 11.9835L14.56 16.2204C14.6489 16.7642 14.1028 17.1783 13.6358 16.9219L9.99937 14.9206L6.36222 16.9219C5.89593 17.179 5.34984 16.7642 5.43875 16.2197L6.13328 11.9828L3.19135 8.98386C3.10663 8.89719 3.0467 8.78724 3.01839 8.66651C2.99009 8.54578 2.99453 8.41912 3.03121 8.30091C3.06789 8.18271 3.13535 8.07771 3.22591 7.99784C3.31648 7.91797 3.42651 7.86645 3.54351 7.84912L7.60984 7.22649Z" fill="#FFA600" stroke="#FFA600" stroke-width="1.5" stroke-linecap="round" stroke-linejoin="round"/>
</svg>
