<svg width="332" height="332" viewBox="0 0 332 332" fill="none" xmlns="http://www.w3.org/2000/svg">
<g filter="url(#filter0_d_4128_10892)">
<rect x="113.602" y="88.0078" width="94.6182" height="94.6268" rx="47.3091" transform="rotate(-6 113.602 88.0078)" fill="url(#paint0_linear_4128_10892)"/>
<g filter="url(#filter1_f_4128_10892)">
<rect x="114.953" y="89.1016" width="92.1606" height="92.1689" rx="46.0803" transform="rotate(-6 114.953 89.1016)" fill="url(#paint1_linear_4128_10892)"/>
<rect x="115.278" y="89.3647" width="91.5692" height="91.5775" rx="45.7846" transform="rotate(-6 115.278 89.3647)" stroke="url(#paint2_linear_4128_10892)" stroke-width="0.591418"/>
</g>
<g filter="url(#filter2_f_4128_10892)">
<path fill-rule="evenodd" clip-rule="evenodd" d="M173.994 134.388C173.388 134.163 170.413 133.083 169.865 132.949C169.318 132.814 168.924 132.76 168.6 133.37C168.276 133.98 167.308 135.379 167.012 135.794C166.716 136.209 166.385 136.292 165.779 136.067C165.174 135.843 163.256 135.437 160.853 133.728C158.983 132.398 157.631 130.655 157.236 130.12C156.84 129.586 157.107 129.246 157.366 128.932C157.598 128.65 157.872 128.206 158.125 127.844C158.378 127.481 158.448 127.233 158.6 126.833C158.752 126.433 158.622 126.111 158.447 125.841C158.274 125.571 156.828 122.89 156.228 121.8C155.644 120.739 155.185 120.939 154.83 120.959C154.493 120.977 154.108 121.014 153.725 121.055C153.341 121.095 152.732 121.303 152.264 121.928C151.797 122.554 150.454 124.088 150.749 126.89C151.043 129.693 153.391 132.183 153.719 132.533C154.046 132.883 158.422 138.237 164.457 140.096C165.892 140.539 167.001 140.776 167.865 140.951C169.289 141.239 170.538 141.046 171.515 140.795C172.603 140.516 174.776 139.06 175.116 137.68C175.456 136.299 175.336 135.159 175.167 134.937C174.998 134.714 174.599 134.612 173.994 134.388ZM164.98 149.676L164.973 149.677C161.536 150.037 158.07 149.478 154.948 148.062L154.206 147.725L147.156 150.367L148.356 143.175L147.825 142.506C145.591 139.692 144.212 136.313 143.838 132.734C142.744 122.292 150.442 112.893 161.005 111.783C166.121 111.247 171.136 112.714 175.128 115.914C179.12 119.114 181.61 123.663 182.14 128.724C183.233 139.168 175.535 148.567 164.98 149.676ZM177.594 112.905C172.791 109.055 166.757 107.29 160.593 107.935C147.893 109.27 138.632 120.578 139.947 133.142C140.368 137.158 141.841 140.966 144.22 144.21L142.193 156.362L154.073 151.909C157.63 153.371 161.519 153.93 165.375 153.526L165.385 153.525C178.083 152.19 187.345 140.881 186.03 128.317C185.393 122.228 182.397 116.754 177.594 112.905Z" fill="#008F36"/>
</g>
<mask id="path-5-inside-1_4128_10892" fill="white">
<path fill-rule="evenodd" clip-rule="evenodd" d="M178.185 132.866C177.58 132.642 174.604 131.562 174.057 131.427C173.509 131.293 173.115 131.238 172.791 131.848C172.468 132.459 171.499 133.857 171.203 134.272C170.907 134.688 170.576 134.771 169.971 134.546C169.365 134.322 167.447 133.915 165.044 132.207C163.174 130.877 161.823 129.134 161.427 128.599C161.031 128.064 161.299 127.725 161.557 127.41C161.79 127.128 162.063 126.685 162.316 126.322C162.569 125.96 162.64 125.712 162.792 125.312C162.944 124.912 162.813 124.589 162.639 124.319C162.465 124.05 161.019 121.368 160.42 120.278C159.836 119.217 159.377 119.418 159.022 119.437C158.685 119.456 158.3 119.493 157.916 119.533C157.532 119.573 156.924 119.782 156.456 120.407C155.988 121.032 154.646 122.566 154.94 125.368C155.235 128.171 157.582 130.661 157.91 131.011C158.238 131.361 162.614 136.716 168.648 138.575C170.083 139.017 171.193 139.255 172.056 139.429C173.481 139.718 174.729 139.525 175.706 139.274C176.795 138.994 178.967 137.538 179.307 136.158C179.647 134.777 179.527 133.638 179.358 133.415C179.19 133.193 178.791 133.091 178.185 132.866ZM169.172 148.155L169.164 148.156C165.728 148.516 162.261 147.957 159.14 146.54L158.397 146.203L151.347 148.845L152.547 141.653L152.016 140.984C149.782 138.17 148.404 134.792 148.029 131.213C146.936 120.77 154.634 111.372 165.197 110.261C170.312 109.725 175.327 111.193 179.319 114.393C183.311 117.592 185.801 122.142 186.331 127.203C187.425 137.646 179.727 147.045 169.172 148.155ZM181.785 111.383C176.983 107.533 170.948 105.768 164.784 106.414C152.085 107.748 142.823 119.056 144.139 131.62C144.559 135.637 146.032 139.445 148.412 142.689L146.384 154.84L158.265 150.388C161.821 151.85 165.711 152.408 169.567 152.004L169.576 152.003C182.275 150.668 191.537 139.359 190.222 126.795C189.584 120.706 186.588 115.233 181.785 111.383Z"/>
</mask>
<path fill-rule="evenodd" clip-rule="evenodd" d="M178.185 132.866C177.58 132.642 174.604 131.562 174.057 131.427C173.509 131.293 173.115 131.238 172.791 131.848C172.468 132.459 171.499 133.857 171.203 134.272C170.907 134.688 170.576 134.771 169.971 134.546C169.365 134.322 167.447 133.915 165.044 132.207C163.174 130.877 161.823 129.134 161.427 128.599C161.031 128.064 161.299 127.725 161.557 127.41C161.79 127.128 162.063 126.685 162.316 126.322C162.569 125.96 162.64 125.712 162.792 125.312C162.944 124.912 162.813 124.589 162.639 124.319C162.465 124.05 161.019 121.368 160.42 120.278C159.836 119.217 159.377 119.418 159.022 119.437C158.685 119.456 158.3 119.493 157.916 119.533C157.532 119.573 156.924 119.782 156.456 120.407C155.988 121.032 154.646 122.566 154.94 125.368C155.235 128.171 157.582 130.661 157.91 131.011C158.238 131.361 162.614 136.716 168.648 138.575C170.083 139.017 171.193 139.255 172.056 139.429C173.481 139.718 174.729 139.525 175.706 139.274C176.795 138.994 178.967 137.538 179.307 136.158C179.647 134.777 179.527 133.638 179.358 133.415C179.19 133.193 178.791 133.091 178.185 132.866ZM169.172 148.155L169.164 148.156C165.728 148.516 162.261 147.957 159.14 146.54L158.397 146.203L151.347 148.845L152.547 141.653L152.016 140.984C149.782 138.17 148.404 134.792 148.029 131.213C146.936 120.77 154.634 111.372 165.197 110.261C170.312 109.725 175.327 111.193 179.319 114.393C183.311 117.592 185.801 122.142 186.331 127.203C187.425 137.646 179.727 147.045 169.172 148.155ZM181.785 111.383C176.983 107.533 170.948 105.768 164.784 106.414C152.085 107.748 142.823 119.056 144.139 131.62C144.559 135.637 146.032 139.445 148.412 142.689L146.384 154.84L158.265 150.388C161.821 151.85 165.711 152.408 169.567 152.004L169.576 152.003C182.275 150.668 191.537 139.359 190.222 126.795C189.584 120.706 186.588 115.233 181.785 111.383Z" fill="white" fill-opacity="0.9"/>
<path d="M174.057 131.427L174.216 130.78L174.216 130.78L174.057 131.427ZM172.791 131.848L172.202 131.536L172.202 131.536L172.791 131.848ZM171.203 134.272L170.66 133.885L170.66 133.885L171.203 134.272ZM169.971 134.546L170.203 133.921L170.202 133.921L169.971 134.546ZM165.044 132.207L165.431 131.663L165.431 131.663L165.044 132.207ZM161.427 128.599L161.963 128.202L161.963 128.202L161.427 128.599ZM161.557 127.41L161.042 126.987L161.042 126.987L161.557 127.41ZM162.316 126.322L161.769 125.94L161.769 125.941L162.316 126.322ZM162.792 125.312L163.415 125.549L163.415 125.549L162.792 125.312ZM162.639 124.319L162.078 124.681L162.078 124.681L162.639 124.319ZM160.42 120.278L161.004 119.957L161.004 119.957L160.42 120.278ZM159.022 119.437L158.985 118.771L158.984 118.771L159.022 119.437ZM156.456 120.407L155.922 120.007L155.922 120.007L156.456 120.407ZM168.648 138.575L168.845 137.937L168.845 137.937L168.648 138.575ZM172.056 139.429L172.188 138.775L172.188 138.775L172.056 139.429ZM175.706 139.274L175.54 138.628L175.54 138.628L175.706 139.274ZM179.307 136.158L179.955 136.318L179.955 136.318L179.307 136.158ZM169.164 148.156L169.234 148.819L169.234 148.819L169.164 148.156ZM159.14 146.54L158.864 147.147L158.864 147.147L159.14 146.54ZM158.397 146.203L158.673 145.596L158.421 145.482L158.163 145.579L158.397 146.203ZM151.347 148.845L150.689 148.736L150.499 149.875L151.581 149.47L151.347 148.845ZM152.547 141.653L153.205 141.763L153.254 141.471L153.069 141.239L152.547 141.653ZM152.016 140.984L152.539 140.57L152.539 140.57L152.016 140.984ZM148.029 131.213L148.692 131.143L148.692 131.143L148.029 131.213ZM165.197 110.261L165.127 109.598L165.127 109.598L165.197 110.261ZM179.319 114.393L179.737 113.872L179.319 114.393ZM186.331 127.203L186.995 127.133L186.995 127.133L186.331 127.203ZM164.784 106.414L164.715 105.75L164.715 105.75L164.784 106.414ZM144.139 131.62L143.475 131.69L143.475 131.69L144.139 131.62ZM148.412 142.689L149.069 142.799L149.116 142.521L148.949 142.294L148.412 142.689ZM146.384 154.84L145.726 154.73L145.536 155.87L146.618 155.465L146.384 154.84ZM158.265 150.388L158.518 149.771L158.276 149.671L158.031 149.763L158.265 150.388ZM169.567 152.004L169.636 152.667L169.637 152.667L169.567 152.004ZM190.222 126.795L190.885 126.726L190.885 126.726L190.222 126.795ZM178.185 132.866L178.417 132.241C178.111 132.127 177.213 131.8 176.322 131.484C175.454 131.176 174.531 130.857 174.216 130.78L174.057 131.427L173.897 132.075C174.13 132.132 174.969 132.42 175.876 132.742C176.762 133.056 177.654 133.381 177.953 133.492L178.185 132.866ZM174.057 131.427L174.216 130.78C173.962 130.717 173.578 130.623 173.196 130.707C172.743 130.807 172.425 131.115 172.202 131.536L172.791 131.848L173.38 132.161C173.434 132.059 173.473 132.021 173.485 132.011C173.49 132.006 173.491 132.006 173.488 132.008C173.485 132.01 173.483 132.01 173.484 132.01C173.489 132.009 173.519 132.003 173.593 132.012C173.669 132.022 173.763 132.042 173.897 132.075L174.057 131.427ZM172.791 131.848L172.202 131.536C171.903 132.1 170.963 133.46 170.66 133.885L171.203 134.272L171.746 134.659C172.035 134.254 173.032 132.818 173.381 132.161L172.791 131.848ZM171.203 134.272L170.66 133.885C170.613 133.952 170.581 133.98 170.566 133.992C170.559 133.997 170.556 133.999 170.556 133.999C170.556 133.999 170.556 133.999 170.556 133.999C170.556 133.999 170.556 133.999 170.555 133.999C170.546 134.001 170.46 134.016 170.203 133.921L169.971 134.546L169.739 135.171C170.088 135.301 170.469 135.387 170.851 135.299C171.261 135.206 171.542 134.946 171.746 134.659L171.203 134.272ZM169.971 134.546L170.202 133.921C169.529 133.671 167.739 133.305 165.431 131.663L165.044 132.207L164.658 132.75C167.154 134.526 169.202 134.972 169.739 135.171L169.971 134.546ZM165.044 132.207L165.431 131.663C163.647 130.395 162.345 128.719 161.963 128.202L161.427 128.599L160.891 128.996C161.3 129.548 162.701 131.359 164.658 132.75L165.044 132.207ZM161.427 128.599L161.963 128.202C161.905 128.124 161.894 128.084 161.893 128.078C161.892 128.075 161.893 128.077 161.893 128.082C161.893 128.087 161.892 128.09 161.892 128.09C161.893 128.087 161.899 128.066 161.93 128.019C161.963 127.969 162.006 127.915 162.072 127.834L161.557 127.41L161.042 126.987C160.929 127.124 160.694 127.398 160.601 127.754C160.491 128.178 160.598 128.601 160.891 128.996L161.427 128.599ZM161.557 127.41L162.072 127.834C162.325 127.527 162.648 127.012 162.863 126.703L162.316 126.322L161.769 125.941C161.478 126.358 161.254 126.73 161.042 126.987L161.557 127.41ZM162.316 126.322L162.863 126.704C163.174 126.258 163.276 125.917 163.415 125.549L162.792 125.312L162.168 125.075C162.004 125.507 161.964 125.662 161.769 125.94L162.316 126.322ZM162.792 125.312L163.415 125.549C163.676 124.861 163.424 124.306 163.199 123.958L162.639 124.319L162.078 124.681C162.144 124.782 162.174 124.853 162.186 124.907C162.195 124.95 162.197 125 162.168 125.075L162.792 125.312ZM162.639 124.319L163.2 123.958C163.2 123.958 163.199 123.958 163.199 123.957C163.198 123.957 163.198 123.956 163.197 123.954C163.195 123.951 163.193 123.948 163.19 123.943C163.184 123.933 163.177 123.921 163.168 123.905C163.15 123.874 163.127 123.834 163.099 123.784C163.043 123.686 162.971 123.557 162.887 123.405C162.718 123.1 162.504 122.707 162.275 122.287C161.818 121.449 161.305 120.503 161.004 119.957L160.42 120.278L159.835 120.6C160.134 121.143 160.644 122.083 161.103 122.926C161.551 123.746 161.974 124.519 162.078 124.681L162.639 124.319ZM160.42 120.278L161.004 119.957C160.675 119.358 160.308 118.979 159.852 118.822C159.456 118.685 159 118.77 158.985 118.771L159.022 119.437L159.058 120.103C159.125 120.099 159.192 120.092 159.233 120.087C159.281 120.082 159.312 120.079 159.34 120.077C159.39 120.075 159.407 120.08 159.417 120.083C159.426 120.086 159.581 120.137 159.835 120.6L160.42 120.278ZM159.022 119.437L158.984 118.771C158.63 118.791 158.232 118.829 157.846 118.87L157.916 119.533L157.986 120.196C158.368 120.156 158.739 120.121 159.059 120.103L159.022 119.437ZM157.916 119.533L157.846 118.87C157.313 118.926 156.52 119.207 155.922 120.007L156.456 120.407L156.99 120.806C157.327 120.356 157.752 120.221 157.986 120.196L157.916 119.533ZM156.456 120.407L155.922 120.007C155.452 120.636 153.953 122.357 154.277 125.438L154.94 125.368L155.603 125.299C155.338 122.776 156.524 121.429 156.99 120.806L156.456 120.407ZM154.94 125.368L154.277 125.438C154.44 126.99 155.163 128.418 155.854 129.475C156.551 130.54 157.252 131.284 157.423 131.467L157.91 131.011L158.397 130.555C158.241 130.389 157.603 129.712 156.971 128.745C156.332 127.768 155.735 126.549 155.603 125.299L154.94 125.368ZM157.91 131.011L157.423 131.467C157.711 131.774 162.213 137.29 168.452 139.212L168.648 138.575L168.845 137.937C163.015 136.141 158.765 130.948 158.397 130.555L157.91 131.011ZM168.648 138.575L168.452 139.212C169.917 139.664 171.05 139.906 171.924 140.083L172.056 139.429L172.188 138.775C171.335 138.603 170.25 138.37 168.845 137.937L168.648 138.575ZM172.056 139.429L171.924 140.083C173.484 140.399 174.842 140.184 175.872 139.92L175.706 139.274L175.54 138.628C174.617 138.865 173.478 139.037 172.188 138.775L172.056 139.429ZM175.706 139.274L175.872 139.92C176.537 139.749 177.436 139.257 178.201 138.652C178.951 138.058 179.73 137.232 179.955 136.318L179.307 136.158L178.66 135.999C178.545 136.464 178.068 137.056 177.373 137.606C176.695 138.143 175.963 138.519 175.54 138.628L175.706 139.274ZM179.307 136.158L179.955 136.318C180.139 135.57 180.2 134.883 180.19 134.341C180.186 134.07 180.163 133.826 180.125 133.622C180.094 133.454 180.034 133.203 179.89 133.012L179.358 133.415L178.827 133.818C178.767 133.739 178.786 133.714 178.814 133.865C178.835 133.981 178.853 134.149 178.857 134.364C178.864 134.793 178.816 135.365 178.66 135.999L179.307 136.158ZM179.358 133.415L179.89 133.012C179.69 132.749 179.4 132.612 179.191 132.525C178.982 132.439 178.68 132.338 178.417 132.241L178.185 132.866L177.953 133.491C178.296 133.619 178.496 133.681 178.68 133.758C178.864 133.834 178.858 133.859 178.827 133.818L179.358 133.415ZM169.172 148.155L169.102 147.492L169.094 147.492L169.164 148.156L169.234 148.819L169.242 148.818L169.172 148.155ZM169.164 148.156L169.095 147.492C165.775 147.84 162.428 147.3 159.415 145.933L159.14 146.54L158.864 147.147C162.094 148.613 165.68 149.191 169.234 148.819L169.164 148.156ZM159.14 146.54L159.415 145.933L158.673 145.596L158.397 146.203L158.122 146.811L158.864 147.147L159.14 146.54ZM158.397 146.203L158.163 145.579L151.113 148.221L151.347 148.845L151.581 149.47L158.631 146.828L158.397 146.203ZM151.347 148.845L152.005 148.955L153.205 141.763L152.547 141.653L151.889 141.543L150.689 148.736L151.347 148.845ZM152.547 141.653L153.069 141.239L152.539 140.57L152.016 140.984L151.494 141.399L152.024 142.068L152.547 141.653ZM152.016 140.984L152.539 140.57C150.384 137.855 149.054 134.596 148.692 131.143L148.029 131.213L147.366 131.282C147.753 134.987 149.181 138.486 151.494 141.399L152.016 140.984ZM148.029 131.213L148.692 131.143C147.638 121.074 155.063 111.997 165.266 110.925L165.197 110.261L165.127 109.598C154.205 110.746 146.233 120.466 147.366 131.282L148.029 131.213ZM165.197 110.261L165.266 110.925C170.208 110.407 175.048 111.824 178.902 114.913L179.319 114.393L179.737 113.872C175.607 110.562 170.416 109.044 165.127 109.598L165.197 110.261ZM179.319 114.393L178.902 114.913C182.756 118.002 185.157 122.389 185.668 127.272L186.331 127.203L186.995 127.133C186.446 121.894 183.867 117.183 179.737 113.872L179.319 114.393ZM186.331 127.203L185.668 127.272C186.722 137.343 179.298 146.42 169.102 147.492L169.172 148.155L169.242 148.818C180.156 147.671 188.127 137.95 186.995 127.133L186.331 127.203ZM181.785 111.383L182.202 110.863C177.262 106.902 171.052 105.087 164.715 105.75L164.784 106.414L164.854 107.077C170.844 106.45 176.703 108.164 181.368 111.904L181.785 111.383ZM164.784 106.414L164.715 105.75C151.656 107.123 142.121 118.753 143.475 131.69L144.139 131.62L144.802 131.551C143.526 119.36 152.514 108.374 164.854 107.077L164.784 106.414ZM144.139 131.62L143.475 131.69C143.908 135.824 145.424 139.744 147.874 143.083L148.412 142.689L148.949 142.294C146.64 139.146 145.21 135.45 144.802 131.551L144.139 131.62ZM148.412 142.689L147.754 142.579L145.726 154.73L146.384 154.84L147.042 154.95L149.069 142.799L148.412 142.689ZM146.384 154.84L146.618 155.465L158.499 151.012L158.265 150.388L158.031 149.763L146.15 154.216L146.384 154.84ZM158.265 150.388L158.011 151.005C161.67 152.509 165.671 153.083 169.636 152.667L169.567 152.004L169.497 151.341C165.75 151.733 161.972 151.19 158.518 149.771L158.265 150.388ZM169.567 152.004L169.637 152.667L169.646 152.666L169.576 152.003L169.507 151.34L169.497 151.341L169.567 152.004ZM169.576 152.003L169.646 152.666C182.704 151.294 192.239 139.663 190.885 126.726L190.222 126.795L189.558 126.865C190.835 139.056 181.845 150.043 169.507 151.34L169.576 152.003ZM190.222 126.795L190.885 126.726C190.229 120.459 187.143 114.823 182.202 110.863L181.785 111.383L181.368 111.904C186.033 115.643 188.939 120.954 189.558 126.865L190.222 126.795Z" fill="url(#paint3_linear_4128_10892)" mask="url(#path-5-inside-1_4128_10892)"/>
</g>
<defs>
<filter id="filter0_d_4128_10892" x="0.0016098" y="0.000347137" width="331.192" height="331.202" filterUnits="userSpaceOnUse" color-interpolation-filters="sRGB">
<feFlood flood-opacity="0" result="BackgroundImageFix"/>
<feColorMatrix in="SourceAlpha" type="matrix" values="0 0 0 0 0 0 0 0 0 0 0 0 0 0 0 0 0 0 127 0" result="hardAlpha"/>
<feOffset dy="35.4851"/>
<feGaussianBlur stdDeviation="59.1418"/>
<feComposite in2="hardAlpha" operator="out"/>
<feColorMatrix type="matrix" values="0 0 0 0 0 0 0 0 0 0 0 0 0 0 0 0 0 0 0.15 0"/>
<feBlend mode="normal" in2="BackgroundImageFix" result="effect1_dropShadow_4128_10892"/>
<feBlend mode="normal" in="SourceGraphic" in2="effect1_dropShadow_4128_10892" result="shape"/>
</filter>
<filter id="filter1_f_4128_10892" x="113.601" y="78.1151" width="103.996" height="104.004" filterUnits="userSpaceOnUse" color-interpolation-filters="sRGB">
<feFlood flood-opacity="0" result="BackgroundImageFix"/>
<feBlend mode="normal" in="SourceGraphic" in2="BackgroundImageFix" result="shape"/>
<feGaussianBlur stdDeviation="2.95709" result="effect1_foregroundBlur_4128_10892"/>
</filter>
<filter id="filter2_f_4128_10892" x="126.485" y="94.4659" width="73.0095" height="75.2341" filterUnits="userSpaceOnUse" color-interpolation-filters="sRGB">
<feFlood flood-opacity="0" result="BackgroundImageFix"/>
<feBlend mode="normal" in="SourceGraphic" in2="BackgroundImageFix" result="shape"/>
<feGaussianBlur stdDeviation="6.66937" result="effect1_foregroundBlur_4128_10892"/>
</filter>
<linearGradient id="paint0_linear_4128_10892" x1="159.067" y1="180.177" x2="160.911" y2="93.2307" gradientUnits="userSpaceOnUse">
<stop stop-color="#00A83F"/>
<stop offset="1" stop-color="#52EF8C"/>
</linearGradient>
<linearGradient id="paint1_linear_4128_10892" x1="161.033" y1="99.2401" x2="161.033" y2="171.132" gradientUnits="userSpaceOnUse">
<stop stop-color="#25D366" stop-opacity="0.72"/>
<stop offset="1" stop-color="#25D366"/>
</linearGradient>
<linearGradient id="paint2_linear_4128_10892" x1="161.033" y1="89.1016" x2="161.033" y2="181.271" gradientUnits="userSpaceOnUse">
<stop stop-color="#D6FFE5"/>
<stop offset="1" stop-color="#008D35"/>
</linearGradient>
<linearGradient id="paint3_linear_4128_10892" x1="164.688" y1="106.424" x2="169.521" y2="152.408" gradientUnits="userSpaceOnUse">
<stop stop-color="white"/>
<stop offset="1" stop-color="white" stop-opacity="0"/>
</linearGradient>
</defs>
</svg>
