<svg xmlns="http://www.w3.org/2000/svg" width="47" height="48" fill="none" viewBox="0 0 47 48"><path fill="url(#a)" fill-rule="evenodd" d="M5.522 24.685c1.83-5.701 2.128-11.294 2.71-17.166A2.083 2.083 0 0 0 6.37 5.24a2.084 2.084 0 0 0-2.276 1.872C3.54 12.68 3.3 17.998 1.563 23.413a2.08 2.08 0 1 0 3.959 1.272" clip-rule="evenodd"/><path fill="url(#b)" fill-rule="evenodd" d="M13.914 35.726c10.287-8.17 20.193-18.914 27.363-29.96a2.08 2.08 0 1 0-3.487-2.268c-6.934 10.68-16.514 21.07-26.461 28.966a2.086 2.086 0 0 0-.337 2.925 2.08 2.08 0 0 0 2.922.337" clip-rule="evenodd"/><path fill="url(#c)" fill-rule="evenodd" d="M15.683 45.56c8.741 2.078 18.03.224 26.317-2.737a2.082 2.082 0 0 0-1.398-3.924c-7.547 2.7-15.996 4.502-23.957 2.61a2.081 2.081 0 0 0-.962 4.05" clip-rule="evenodd"/><defs><linearGradient id="a" x1="8.628" x2="2.056" y1="15.945" y2="15.486" gradientUnits="userSpaceOnUse"><stop stop-color="#662fff"/><stop offset="1" stop-color="#ea25f5"/></linearGradient><linearGradient id="b" x1="45.572" x2="11.638" y1="20.727" y2="18.354" gradientUnits="userSpaceOnUse"><stop stop-color="#662fff"/><stop offset="1" stop-color="#ea25f5"/></linearGradient><linearGradient id="c" x1="48.28" x2="14.23" y1="43.764" y2="41.383" gradientUnits="userSpaceOnUse"><stop stop-color="#662fff"/><stop offset="1" stop-color="#ea25f5"/></linearGradient></defs></svg>