<svg width="23" height="25" viewBox="0 0 23 25" fill="none" xmlns="http://www.w3.org/2000/svg">
<path fill-rule="evenodd" clip-rule="evenodd" d="M21.5066 0.00163697C21.7638 -0.00757377 22.0142 0.0859269 22.2025 0.261571C22.3909 0.437215 22.502 0.680615 22.5112 0.938224L22.9286 12.594C22.9378 12.8516 22.8445 13.1024 22.6691 13.291C22.4938 13.4797 22.2508 13.5909 21.9936 13.6001C21.7364 13.6093 21.4861 13.5158 21.2977 13.3401C21.1093 13.1645 20.9982 12.9211 20.989 12.6635L20.6556 3.35244L1.68258 23.7691C1.59564 23.8626 1.49117 23.9381 1.37511 23.9912C1.25905 24.0443 1.13368 24.0739 1.00617 24.0785C0.878653 24.0831 0.751486 24.0624 0.631927 24.0178C0.512368 23.9731 0.402759 23.9053 0.309358 23.8182C0.215957 23.7312 0.140594 23.6265 0.0875704 23.5103C0.0345469 23.394 0.00490202 23.2685 0.000328357 23.1407C-0.00424531 23.013 0.0163418 22.8857 0.0609143 22.7659C0.105487 22.6462 0.173171 22.5364 0.260104 22.4429L19.2351 2.02811L9.93875 2.36102C9.68154 2.37023 9.43121 2.27673 9.24281 2.10109C9.05442 1.92544 8.9434 1.68204 8.93417 1.42443C8.92495 1.16682 9.01828 0.916106 9.19362 0.727436C9.36897 0.538765 9.61197 0.427598 9.86918 0.418387L21.5066 0.00163697Z" fill="#471C94"/>
</svg>
