<svg width="40" height="40" viewBox="0 0 40 40" fill="none" xmlns="http://www.w3.org/2000/svg">
<path d="M36.6641 8.33594C36.6641 11.0974 34.4255 13.336 31.6641 13.336C28.9026 13.336 26.6641 11.0974 26.6641 8.33594C26.6641 5.57452 28.9026 3.33594 31.6641 3.33594C34.4255 3.33594 36.6641 5.57452 36.6641 8.33594Z" fill="white"/>
<path fill-rule="evenodd" clip-rule="evenodd" d="M26.0226 3.39971C24.3193 3.33594 22.3339 3.33594 20.0026 3.33594C12.1459 3.33594 8.21749 3.33594 5.77671 5.77672C3.33594 8.2175 3.33594 12.1459 3.33594 20.0026C3.33594 27.8594 3.33594 31.7877 5.77671 34.2285C8.21749 36.6693 12.1459 36.6693 20.0026 36.6693C27.8593 36.6693 31.7877 36.6693 34.2285 34.2285C36.6693 31.7877 36.6693 27.8594 36.6693 20.0026C36.6693 17.6713 36.6693 15.6859 36.6055 13.9826C35.2865 15.1367 33.5595 15.836 31.6693 15.836C27.5271 15.836 24.1693 12.4781 24.1693 8.33594C24.1693 6.44567 24.8686 4.71873 26.0226 3.39971ZM29.1362 15.709C29.6665 16.151 29.7382 16.9392 29.2962 17.4695L26.2481 21.1272C25.7007 21.7843 25.2072 22.3766 24.7462 22.7929C24.2446 23.2458 23.6129 23.6492 22.7804 23.6492C21.9479 23.6492 21.3161 23.2458 20.8146 22.7929C20.3536 22.3766 19.8601 21.7843 19.3126 21.1272L18.8253 20.5424C18.2073 19.8008 17.8278 19.3501 17.5152 19.0678C17.3702 18.9369 17.2842 18.8847 17.2429 18.8647C17.2346 18.8607 17.2286 18.8583 17.2248 18.8569L17.218 18.8596L17.2067 18.8647C17.1655 18.8847 17.0795 18.9369 16.9345 19.0678C16.6219 19.3501 16.2424 19.8008 15.6244 20.5424L12.6295 24.1362C12.1876 24.6665 11.3994 24.7382 10.869 24.2962C10.3387 23.8543 10.267 23.0661 10.709 22.5357L13.7571 18.878C14.3045 18.221 14.798 17.6286 15.259 17.2123C15.7606 16.7594 16.3923 16.356 17.2248 16.356C18.0573 16.356 18.6891 16.7594 19.1906 17.2123C19.6516 17.6286 20.1452 18.221 20.6926 18.878L21.1799 19.4628C21.7979 20.2044 22.1774 20.6551 22.4901 20.9374C22.635 21.0684 22.721 21.1205 22.7623 21.1405L22.7676 21.143C22.7732 21.1456 22.7804 21.1484 22.7804 21.1484C22.7842 21.147 22.7901 21.1445 22.7985 21.1405C22.8397 21.1205 22.9257 21.0684 23.0707 20.9374C23.3833 20.6551 23.7629 20.2044 24.3808 19.4628L27.3757 15.8691C27.8176 15.3387 28.6058 15.2671 29.1362 15.709Z" fill="white"/>
</svg>
