<svg width="36" height="36" viewBox="0 0 36 36" fill="none" xmlns="http://www.w3.org/2000/svg">
<path d="M34.0971 4.98857H31.1657V2.88C31.1657 1.28571 29.88 0 28.2857 0C26.6914 0 25.4057 1.28571 25.4057 2.88V4.98857H6.89143V3.85714C6.89143 3.03429 6.22286 2.36571 5.4 2.36571H3.24C1.44 2.36571 0 3.80571 0 5.55429V30.3943C0 32.1943 1.44 33.6343 3.24 33.6343H26.4343L26.8457 34.9714C27.0514 35.5886 27.6171 36 28.2343 36C28.9029 36 29.4171 35.5886 29.6229 34.9714L30.0343 33.6343H34.0457C35.0743 33.6343 35.9486 32.76 35.9486 31.7314V6.89143C36 5.86286 35.1257 4.98857 34.0971 4.98857ZM29.9829 29.2114H28.8514V7.45714H29.9829V29.2114ZM26.5371 2.88C26.5371 1.90286 27.3086 1.13143 28.2857 1.13143C29.2629 1.13143 30.0343 1.90286 30.0343 2.88V3.70286H26.5886V2.88H26.5371ZM26.5371 4.88571H29.9829V6.27429H26.5371V4.88571ZM26.5371 7.45714H27.6686V29.2629H26.5371V7.45714ZM1.18286 5.55429C1.18286 4.42286 2.10857 3.49714 3.24 3.49714H5.34857C5.55429 3.49714 5.70857 3.65143 5.70857 3.85714V26.8457C5.70857 27.0514 5.55429 27.2057 5.34857 27.2057H3.24C2.46857 27.2057 1.74857 27.4629 1.18286 27.9771V5.55429ZM3.24 32.5029C2.10857 32.5029 1.18286 31.5771 1.18286 30.4457C1.18286 29.3143 2.10857 28.3886 3.24 28.3886H5.34857C6.17143 28.3886 6.84 27.72 6.84 26.8971V6.17143H25.3543V29.8286C25.3543 30.24 25.4057 30.7029 25.56 31.0629L26.0229 32.5029H3.24ZM28.5429 34.6114C28.4914 34.8171 28.3371 34.8171 28.2343 34.8171C28.1829 34.8171 27.9771 34.8171 27.9257 34.6114L26.64 30.7029C26.5886 30.6 26.5886 30.4971 26.5371 30.3943H29.88C29.88 30.4971 29.8286 30.6 29.7771 30.7029L28.5429 34.6114ZM34.8171 31.7314C34.8171 32.1429 34.4571 32.4514 34.0971 32.4514H30.4971L30.96 31.0114C31.1143 30.6 31.1657 30.1886 31.1657 29.7771V6.17143H34.0971C34.5086 6.17143 34.8171 6.53143 34.8171 6.89143V31.7314Z" fill="url(#paint0_linear_4432_19461)"/>
<path d="M22.8851 15.427C22.8851 15.3755 22.8336 15.3755 22.8336 15.3755C22.6794 15.1698 22.5251 14.9641 22.2679 14.8612L16.8165 11.7241C16.3536 11.467 15.7365 11.467 15.2736 11.7241L9.82221 14.8612C9.6165 15.0155 9.41078 15.1698 9.2565 15.3755C9.2565 15.3755 9.2565 15.3755 9.2565 15.427C9.2565 15.427 9.2565 15.427 9.2565 15.4784C9.15364 15.6841 9.05078 15.9413 9.05078 16.1984V22.4727C9.05078 23.0384 9.35935 23.5527 9.82221 23.8098L15.2736 26.947C15.5308 27.1013 15.7879 27.1527 16.0451 27.1527C16.3022 27.1527 16.5594 27.1013 16.8165 26.947L22.2679 23.8098C22.7308 23.5527 23.0394 23.0384 23.0394 22.4727V16.1984C23.0908 15.8898 23.0394 15.6841 22.8851 15.427ZM15.9422 12.7013C15.9936 12.6498 16.0451 12.6498 16.1479 12.6498C16.1994 12.6498 16.3022 12.6498 16.3536 12.7013L21.3936 15.6327L16.1479 18.667L10.9022 15.6327L15.9422 12.7013ZM10.4908 22.7812C10.3879 22.7298 10.2851 22.5755 10.2851 22.4727V16.6098L15.5308 19.6441V25.7127L10.4908 22.7812ZM21.7536 22.7812L16.7136 25.7127V19.6441L21.9594 16.6098V22.4727C21.9594 22.5755 21.8565 22.7298 21.7536 22.7812Z" fill="url(#paint1_linear_4432_19461)"/>
<defs>
<linearGradient id="paint0_linear_4432_19461" x1="-6.29138" y1="18" x2="35.9507" y2="18" gradientUnits="userSpaceOnUse">
<stop stop-color="#662FFF"/>
<stop offset="1" stop-color="#EA25F5"/>
</linearGradient>
<linearGradient id="paint1_linear_4432_19461" x1="6.59941" y1="19.342" x2="23.0586" y2="19.342" gradientUnits="userSpaceOnUse">
<stop stop-color="#662FFF"/>
<stop offset="1" stop-color="#EA25F5"/>
</linearGradient>
</defs>
</svg>
